<?xml version="1.0" encoding="UTF-8"?>
<svg xmlns="http://www.w3.org/2000/svg" xmlns:xlink="http://www.w3.org/1999/xlink" viewBox="0 0 50 50" version="1.1">
<g id="surface74581">
<path style=" stroke:none;fill-rule:nonzero;fill:currentColor;" d="M 42.550781 13.824219 L 23.5 32.875 C 23.195312 33.179688 22.796875 33.332031 22.394531 33.332031 C 21.996094 33.332031 21.597656 33.179688 21.289062 32.875 L 16.082031 27.667969 C 15.472656 27.058594 15.472656 26.070312 16.082031 25.457031 C 16.691406 24.847656 17.679688 24.847656 18.292969 25.457031 L 22.394531 29.5625 L 40.65625 11.300781 C 36.835938 6.9375 31.242188 4.167969 25 4.167969 C 13.511719 4.167969 4.167969 13.511719 4.167969 25 C 4.167969 36.488281 13.511719 45.832031 25 45.832031 C 36.488281 45.832031 45.832031 36.488281 45.832031 25 C 45.832031 20.886719 44.617188 17.058594 42.550781 13.824219 Z M 42.550781 13.824219 "/>
</g>
</svg>
