<?xml version="1.0" encoding="UTF-8"?>
<svg xmlns="http://www.w3.org/2000/svg" xmlns:xlink="http://www.w3.org/1999/xlink" width="50pt" height="50pt" viewBox="0 0 50 50" version="1.1">
<g id="surface2277">
<path style=" stroke:none;fill-rule:nonzero;fill:currentColor;" d="M 18.75 4.167969 C 16.453125 4.167969 14.582031 6.035156 14.582031 8.332031 L 14.582031 10.417969 L 10.417969 10.417969 L 10.417969 7.242188 C 10.417969 5.769531 8.632812 5.03125 7.59375 6.074219 L 2.730469 10.933594 C 1.867188 11.796875 1.867188 13.203125 2.730469 14.066406 L 7.59375 18.929688 C 8.632812 19.972656 10.417969 19.230469 10.417969 17.757812 L 10.417969 14.582031 L 14.582031 14.582031 L 14.582031 41.667969 C 14.582031 43.964844 16.453125 45.832031 18.75 45.832031 L 24.339844 45.832031 C 23.722656 44.539062 23.292969 43.140625 23.082031 41.667969 L 23.070312 41.667969 C 22.972656 40.984375 22.917969 40.292969 22.917969 39.582031 C 22.917969 33.769531 26.324219 28.757812 31.25 26.421875 L 31.25 26.425781 C 32.546875 25.808594 33.945312 25.378906 35.417969 25.167969 L 35.417969 8.332031 C 35.417969 6.035156 33.546875 4.167969 31.25 4.167969 Z M 37.5 29.167969 C 31.746094 29.167969 27.082031 33.832031 27.082031 39.582031 C 27.082031 45.335938 31.746094 50 37.5 50 C 43.253906 50 47.917969 45.335938 47.917969 39.582031 C 47.917969 33.832031 43.253906 29.167969 37.5 29.167969 Z M 37.5 33.332031 C 38.648438 33.332031 39.582031 34.265625 39.582031 35.417969 L 39.582031 37.5 L 41.667969 37.5 C 42.816406 37.5 43.75 38.433594 43.75 39.582031 C 43.75 40.734375 42.816406 41.667969 41.667969 41.667969 L 39.582031 41.667969 L 39.582031 43.75 C 39.582031 44.898438 38.648438 45.832031 37.5 45.832031 C 36.351562 45.832031 35.417969 44.898438 35.417969 43.75 L 35.417969 41.667969 L 33.332031 41.667969 C 32.183594 41.667969 31.25 40.734375 31.25 39.582031 C 31.25 38.433594 32.183594 37.5 33.332031 37.5 L 35.417969 37.5 L 35.417969 35.417969 C 35.417969 34.265625 36.351562 33.332031 37.5 33.332031 Z M 37.5 33.332031 "/>
</g>
</svg>
