<?xml version="1.0" encoding="UTF-8"?>
<svg xmlns="http://www.w3.org/2000/svg" xmlns:xlink="http://www.w3.org/1999/xlink" width="50pt" height="50pt" viewBox="0 0 50 50" version="1.1">
<g id="surface2282">
<path style=" stroke:none;fill-rule:nonzero;fill:currentColor;" d="M 14.582031 4.167969 C 12.285156 4.167969 10.417969 6.035156 10.417969 8.332031 L 10.417969 41.667969 C 10.417969 43.964844 12.285156 45.832031 14.582031 45.832031 L 20.175781 45.832031 C 19.558594 44.539062 19.128906 43.140625 18.917969 41.667969 L 18.90625 41.667969 C 18.808594 40.984375 18.75 40.292969 18.75 39.582031 C 18.75 33.769531 22.160156 28.757812 27.082031 26.421875 L 27.082031 26.425781 C 28.378906 25.808594 29.777344 25.378906 31.25 25.167969 L 31.25 14.582031 L 35.417969 14.582031 L 35.417969 17.757812 C 35.417969 19.230469 37.199219 19.96875 38.242188 18.929688 L 43.101562 14.066406 C 43.96875 13.203125 43.96875 11.800781 43.101562 10.9375 L 38.242188 6.074219 C 37.199219 5.03125 35.417969 5.769531 35.417969 7.242188 L 35.417969 10.417969 L 31.25 10.417969 L 31.25 8.332031 C 31.25 6.035156 29.382812 4.167969 27.082031 4.167969 Z M 33.332031 29.167969 C 27.582031 29.167969 22.917969 33.832031 22.917969 39.582031 C 22.917969 45.335938 27.582031 50 33.332031 50 C 39.085938 50 43.75 45.335938 43.75 39.582031 C 43.75 33.832031 39.085938 29.167969 33.332031 29.167969 Z M 33.332031 33.332031 C 34.484375 33.332031 35.417969 34.265625 35.417969 35.417969 L 35.417969 37.5 L 37.5 37.5 C 38.648438 37.5 39.582031 38.433594 39.582031 39.582031 C 39.582031 40.734375 38.648438 41.667969 37.5 41.667969 L 35.417969 41.667969 L 35.417969 43.75 C 35.417969 44.898438 34.484375 45.832031 33.332031 45.832031 C 32.183594 45.832031 31.25 44.898438 31.25 43.75 L 31.25 41.667969 L 29.167969 41.667969 C 28.015625 41.667969 27.082031 40.734375 27.082031 39.582031 C 27.082031 38.433594 28.015625 37.5 29.167969 37.5 L 31.25 37.5 L 31.25 35.417969 C 31.25 34.265625 32.183594 33.332031 33.332031 33.332031 Z M 33.332031 33.332031 "/>
</g>
</svg>
