<?xml version="1.0" encoding="UTF-8"?>
<svg xmlns="http://www.w3.org/2000/svg" xmlns:xlink="http://www.w3.org/1999/xlink" width="50pt" height="50pt" viewBox="0 0 50 50" version="1.1">
<g id="surface11750">
<path style=" stroke:none;fill-rule:nonzero;fill:currentColor;" d="M 18.75 4.167969 C 16.453125 4.167969 14.582031 6.035156 14.582031 8.332031 L 14.582031 41.667969 C 14.582031 43.964844 16.453125 45.832031 18.75 45.832031 L 31.25 45.832031 C 33.546875 45.832031 35.417969 43.964844 35.417969 41.667969 L 35.417969 39.582031 C 27.363281 39.582031 20.832031 33.054688 20.832031 25 C 20.832031 16.945312 27.363281 10.417969 35.417969 10.417969 L 35.417969 8.332031 C 35.417969 6.035156 33.546875 4.167969 31.25 4.167969 Z M 35.417969 14.582031 C 29.664062 14.582031 25 19.246094 25 25 C 25 30.753906 29.664062 35.417969 35.417969 35.417969 C 41.167969 35.417969 45.832031 30.753906 45.832031 25 C 45.832031 19.246094 41.167969 14.582031 35.417969 14.582031 Z M 31.25 22.917969 L 39.582031 22.917969 C 40.734375 22.917969 41.667969 23.851562 41.667969 25 C 41.667969 26.148438 40.734375 27.082031 39.582031 27.082031 L 31.25 27.082031 C 30.101562 27.082031 29.167969 26.148438 29.167969 25 C 29.167969 23.851562 30.101562 22.917969 31.25 22.917969 Z M 31.25 22.917969 "/>
</g>
</svg>
