<?xml version="1.0" encoding="UTF-8"?>
<svg xmlns="http://www.w3.org/2000/svg" xmlns:xlink="http://www.w3.org/1999/xlink" viewBox="0 0 50 50" version="1.1">
<g id="surface75790">
<path style=" stroke:none;fill-rule:nonzero;fill:currentColor;" d="M 22.707031 4.375 C 13.125 5.417969 5.417969 13.125 4.375 22.5 C 3.332031 32.292969 8.957031 41.042969 17.5 44.375 C 18.125 44.582031 18.75 44.167969 18.75 43.332031 L 18.75 40 C 18.75 40 17.917969 40.207031 16.875 40.207031 C 13.957031 40.207031 12.707031 37.707031 12.5 36.25 C 12.292969 35.417969 11.875 34.792969 11.25 34.167969 C 10.625 33.957031 10.417969 33.957031 10.417969 33.75 C 10.417969 33.332031 11.042969 33.332031 11.25 33.332031 C 12.5 33.332031 13.542969 34.792969 13.957031 35.417969 C 15 37.082031 16.25 37.5 16.875 37.5 C 17.707031 37.5 18.332031 37.292969 18.75 37.082031 C 18.957031 35.625 19.582031 34.167969 20.832031 33.332031 C 16.042969 32.292969 12.5 29.582031 12.5 25 C 12.5 22.707031 13.542969 20.417969 15 18.75 C 14.792969 18.332031 14.582031 17.292969 14.582031 15.832031 C 14.582031 15 14.582031 13.75 15.207031 12.5 C 15.207031 12.5 18.125 12.5 21.042969 15.207031 C 22.082031 14.792969 23.542969 14.582031 25 14.582031 C 26.457031 14.582031 27.917969 14.792969 29.167969 15.207031 C 31.875 12.5 35 12.5 35 12.5 C 35.417969 13.75 35.417969 15 35.417969 15.832031 C 35.417969 17.5 35.207031 18.332031 35 18.75 C 36.457031 20.417969 37.5 22.5 37.5 25 C 37.5 29.582031 33.957031 32.292969 29.167969 33.332031 C 30.417969 34.375 31.25 36.25 31.25 38.125 L 31.25 43.542969 C 31.25 44.167969 31.875 44.792969 32.707031 44.582031 C 40.417969 41.457031 45.832031 33.957031 45.832031 25.207031 C 45.832031 12.707031 35.207031 2.917969 22.707031 4.375 Z M 22.707031 4.375 "/>
</g>
</svg>
