<?xml version="1.0" encoding="UTF-8"?>
<svg viewBox="0 0 42 42" version="1.1" xmlns="http://www.w3.org/2000/svg" xmlns:xlink="http://www.w3.org/1999/xlink">
    <title>icons8-Material Rounded-83180-50-000000</title>
    <g id="Page-1" stroke="none" stroke-width="1" fill="none" fill-rule="evenodd">
        <g id="icons8-Material-Rounded-83180-50-000000" fill="currentColor" fill-rule="nonzero">
            <path d="M21,0.167969 C9.492188,0.167969 0.167969,9.492188 0.167969,21 C0.167969,32.507812 9.492188,41.832031 21,41.832031 C32.507812,41.832031 41.832031,32.507812 41.832031,21 C41.832031,9.492188 32.507812,0.167969 21,0.167969 Z M21,31.417969 C19.851562,31.417969 18.917969,30.484375 18.917969,29.332031 L18.917969,21 C18.917969,19.851562 19.851562,18.917969 21,18.917969 C22.148438,18.917969 23.082031,19.851562 23.082031,21 L23.082031,29.332031 C23.082031,30.484375 22.148438,31.417969 21,31.417969 Z M22.042969,14.75 L19.957031,14.75 C19.382812,14.75 18.917969,14.285156 18.917969,13.707031 L18.917969,11.625 C18.917969,11.050781 19.382812,10.582031 19.957031,10.582031 L22.042969,10.582031 C22.617188,10.582031 23.082031,11.050781 23.082031,11.625 L23.082031,13.707031 C23.082031,14.285156 22.617188,14.75 22.042969,14.75 Z" id="Shape"></path>
        </g>
    </g>
</svg>