<?xml version="1.0" encoding="UTF-8"?>
<svg viewBox="0 0 24 19" version="1.1" xmlns="http://www.w3.org/2000/svg" xmlns:xlink="http://www.w3.org/1999/xlink">
    <g id="Welcome" stroke="none" stroke-width="1" fill="none" fill-rule="evenodd">
        <g fill="currentColor" fill-rule="nonzero">
            <path d="M7.30434783,0 C3.27717391,0 0,3.27717391 0,7.30434783 L0,18.7826087 L10.4347826,18.7826087 L10.4347826,8.34782609 L4.69565217,8.34782609 L4.69565217,7.30434783 C4.69565217,5.29076087 5.86548939,3.65217391 7.30434783,3.65217391 L7.82608696,3.65217391 L7.82608696,0 L7.30434783,0 Z M20.8695652,0 C16.8423913,0 13.5652174,3.27717391 13.5652174,7.30434783 L13.5652174,18.7826087 L24,18.7826087 L24,8.34782609 L18.2608696,8.34782609 L18.2608696,7.30434783 C18.2608696,5.29076087 19.4307068,3.65217391 20.8695652,3.65217391 L21.3913043,3.65217391 L21.3913043,0 L20.8695652,0 Z" id="Shape"></path>
        </g>
    </g>
</svg>