<?xml version="1.0" encoding="UTF-8"?>
<svg xmlns="http://www.w3.org/2000/svg" xmlns:xlink="http://www.w3.org/1999/xlink" width="50pt" height="50pt" viewBox="0 0 50 50" version="1.1">
<g id="surface16145">
<path style=" stroke:none;fill-rule:nonzero;fill:currentColor;" d="M 12.503906 4.167969 C 11.9375 4.167969 11.371094 4.382812 10.9375 4.8125 L 6.074219 9.675781 C 5.03125 10.71875 5.769531 12.5 7.242188 12.5 L 10.417969 12.5 L 10.417969 16.667969 L 8.332031 16.667969 C 6.035156 16.667969 4.167969 18.535156 4.167969 20.832031 L 4.167969 33.332031 C 4.167969 35.632812 6.035156 37.5 8.332031 37.5 L 25.167969 37.5 C 25.378906 36.027344 25.808594 34.628906 26.425781 33.332031 L 26.421875 33.332031 C 28.757812 28.410156 33.769531 25 39.582031 25 C 40.292969 25 40.984375 25.058594 41.667969 25.15625 L 41.667969 25.164062 C 43.140625 25.375 44.539062 25.804688 45.832031 26.421875 L 45.832031 20.832031 C 45.832031 18.535156 43.964844 16.667969 41.667969 16.667969 L 14.582031 16.667969 L 14.582031 12.5 L 17.757812 12.5 C 19.230469 12.5 19.96875 10.71875 18.929688 9.675781 L 14.066406 4.8125 C 13.632812 4.382812 13.070312 4.167969 12.503906 4.167969 Z M 39.582031 29.167969 C 33.832031 29.167969 29.167969 33.832031 29.167969 39.582031 C 29.167969 45.335938 33.832031 50 39.582031 50 C 45.335938 50 50 45.335938 50 39.582031 C 50 33.832031 45.335938 29.167969 39.582031 29.167969 Z M 39.582031 33.332031 C 40.734375 33.332031 41.667969 34.265625 41.667969 35.417969 L 41.667969 37.5 L 43.75 37.5 C 44.898438 37.5 45.832031 38.433594 45.832031 39.582031 C 45.832031 40.734375 44.898438 41.667969 43.75 41.667969 L 41.667969 41.667969 L 41.667969 43.75 C 41.667969 44.898438 40.734375 45.832031 39.582031 45.832031 C 38.433594 45.832031 37.5 44.898438 37.5 43.75 L 37.5 41.667969 L 35.417969 41.667969 C 34.265625 41.667969 33.332031 40.734375 33.332031 39.582031 C 33.332031 38.433594 34.265625 37.5 35.417969 37.5 L 37.5 37.5 L 37.5 35.417969 C 37.5 34.265625 38.433594 33.332031 39.582031 33.332031 Z M 39.582031 33.332031 "/>
</g>
</svg>
