<?xml version="1.0" encoding="UTF-8"?>
<svg xmlns="http://www.w3.org/2000/svg" xmlns:xlink="http://www.w3.org/1999/xlink" width="50pt" height="50pt" viewBox="0 0 50 50" version="1.1">
<g id="surface7084">
<path style=" stroke:none;fill-rule:nonzero;fill:currentColor;" d="M 8.332031 10.417969 C 6.035156 10.417969 4.167969 12.285156 4.167969 14.582031 L 4.167969 27.082031 C 4.167969 29.382812 6.035156 31.25 8.332031 31.25 L 10.417969 31.25 L 10.417969 35.417969 L 4.167969 35.417969 L 12.5 43.75 L 20.832031 35.417969 L 14.582031 35.417969 L 14.582031 31.25 L 25.167969 31.25 C 25.378906 29.777344 25.808594 28.378906 26.425781 27.082031 L 26.421875 27.082031 C 28.757812 22.160156 33.769531 18.75 39.582031 18.75 C 40.292969 18.75 40.984375 18.808594 41.667969 18.90625 L 41.667969 18.917969 C 43.140625 19.128906 44.539062 19.558594 45.832031 20.175781 L 45.832031 14.582031 C 45.832031 12.285156 43.964844 10.417969 41.667969 10.417969 Z M 39.582031 22.917969 C 33.832031 22.917969 29.167969 27.582031 29.167969 33.332031 C 29.167969 39.085938 33.832031 43.75 39.582031 43.75 C 45.335938 43.75 50 39.085938 50 33.332031 C 50 27.582031 45.335938 22.917969 39.582031 22.917969 Z M 37.5 27.082031 L 41.667969 27.082031 L 41.667969 31.25 L 45.832031 31.25 L 45.832031 35.417969 L 41.667969 35.417969 L 41.667969 39.582031 L 37.5 39.582031 L 37.5 35.417969 L 33.332031 35.417969 L 33.332031 31.25 L 37.5 31.25 Z M 37.5 27.082031 "/>
</g>
</svg>
