<?xml version="1.0" encoding="UTF-8"?>
<svg xmlns="http://www.w3.org/2000/svg" xmlns:xlink="http://www.w3.org/1999/xlink" width="50pt" height="50pt" viewBox="0 0 50 50" version="1.1">
<g id="surface13931">
<path style=" stroke:none;fill-rule:nonzero;fill:currentColor;" d="M 8.332031 12.5 C 6.035156 12.5 4.167969 14.367188 4.167969 16.667969 L 4.167969 29.167969 C 4.167969 31.464844 6.035156 33.332031 8.332031 33.332031 L 10.417969 33.332031 C 10.417969 25.277344 16.945312 18.75 25 18.75 C 33.054688 18.75 39.582031 25.277344 39.582031 33.332031 L 41.667969 33.332031 C 43.964844 33.332031 45.832031 31.464844 45.832031 29.167969 L 45.832031 16.667969 C 45.832031 14.367188 43.964844 12.5 41.667969 12.5 Z M 25 22.917969 C 19.246094 22.917969 14.582031 27.582031 14.582031 33.332031 C 14.582031 39.085938 19.246094 43.75 25 43.75 C 30.753906 43.75 35.417969 39.085938 35.417969 33.332031 C 35.417969 27.582031 30.753906 22.917969 25 22.917969 Z M 20.832031 31.25 L 29.167969 31.25 C 30.316406 31.25 31.25 32.183594 31.25 33.332031 C 31.25 34.484375 30.316406 35.417969 29.167969 35.417969 L 20.832031 35.417969 C 19.683594 35.417969 18.75 34.484375 18.75 33.332031 C 18.75 32.183594 19.683594 31.25 20.832031 31.25 Z M 20.832031 31.25 "/>
</g>
</svg>
