<?xml version="1.0" encoding="UTF-8"?>
<svg width="14px" height="14px" viewBox="0 0 14 14" version="1.1" xmlns="http://www.w3.org/2000/svg" xmlns:xlink="http://www.w3.org/1999/xlink">
    <title>Shape</title>
    <g id="Welcome" stroke="none" stroke-width="1" fill="none" fill-rule="evenodd">
        <g id="Desktop-HD" transform="translate(-1112.000000, -49.000000)" fill="#79838B" fill-rule="nonzero">
            <g id="Main" transform="translate(317.000000, -12061.000000)">
                <g id="Settings" transform="translate(198.000000, 0.000000)">
                    <g id="icons8-Simple-Small-43556-16-000000" transform="translate(597.000000, 12110.000000)">
                        <path d="M5.570312,0 L5.328125,1.289062 C4.398438,1.5625 3.570312,2.046875 2.890625,2.695312 L1.652344,2.261719 L0.222656,4.738281 L1.210938,5.585938 C1.097656,6.042969 1,6.507812 1,7 C1,7.492188 1.097656,7.957031 1.210938,8.414062 L0.222656,9.261719 L1.652344,11.738281 L2.886719,11.300781 C3.570312,11.957031 4.398438,12.4375 5.328125,12.714844 L5.570312,14 L8.429688,14 L8.671875,12.714844 C9.601562,12.4375 10.429688,11.953125 11.109375,11.300781 L12.34375,11.738281 L13.777344,9.261719 L12.785156,8.414062 C12.898438,7.957031 13,7.492188 13,7 C13,6.507812 12.902344,6.042969 12.789062,5.585938 L13.777344,4.738281 L12.347656,2.261719 L11.113281,2.695312 C10.429688,2.042969 9.601562,1.5625 8.671875,1.289062 L8.429688,0 L5.570312,0 Z M6.398438,1 L7.601562,1 L7.796875,2.054688 L8.117188,2.132812 C9.109375,2.359375 9.984375,2.878906 10.65625,3.597656 L10.878906,3.835938 L11.894531,3.480469 L12.496094,4.519531 L11.683594,5.21875 L11.78125,5.53125 C11.921875,5.992188 12,6.488281 12,7 C12,7.511719 11.921875,8.003906 11.78125,8.46875 L11.683594,8.78125 L12.496094,9.480469 L11.894531,10.519531 L10.878906,10.160156 L10.65625,10.402344 C9.984375,11.121094 9.109375,11.640625 8.117188,11.871094 L7.796875,11.941406 L7.601562,13 L6.398438,13 L6.203125,11.941406 L5.882812,11.871094 C4.890625,11.640625 4.015625,11.121094 3.34375,10.402344 L3.117188,10.160156 L2.101562,10.519531 L1.503906,9.480469 L2.316406,8.78125 L2.21875,8.46875 C2.078125,8.007812 2,7.511719 2,7 C2,6.488281 2.078125,5.992188 2.21875,5.53125 L2.316406,5.21875 L1.503906,4.519531 L2.101562,3.480469 L3.121094,3.835938 L3.34375,3.597656 C4.015625,2.878906 4.890625,2.359375 5.882812,2.132812 L6.203125,2.054688 L6.398438,1 Z M7,4 C5.347656,4 4,5.347656 4,7 C4,8.652344 5.347656,10 7,10 C8.652344,10 10,8.652344 10,7 C10,5.347656 8.652344,4 7,4 Z M7,5 C8.109375,5 9,5.890625 9,7 C9,8.109375 8.109375,9 7,9 C5.890625,9 5,8.109375 5,7 C5,5.890625 5.890625,5 7,5 Z" id="Shape"></path>
                    </g>
                </g>
            </g>
        </g>
    </g>
</svg>