<?xml version="1.0" encoding="UTF-8"?>
<svg xmlns="http://www.w3.org/2000/svg" xmlns:xlink="http://www.w3.org/1999/xlink" viewBox="0 0 50 50" version="1.1">
<g id="surface76519">
<path style=" stroke:none;fill-rule:nonzero;fill:currentColor;" d="M 24.972656 1.644531 C 24.054688 1.660156 23.320312 2.414062 23.332031 3.332031 L 23.332031 8.332031 C 23.324219 8.933594 23.640625 9.492188 24.160156 9.796875 C 24.679688 10.097656 25.320312 10.097656 25.839844 9.796875 C 26.359375 9.492188 26.675781 8.933594 26.667969 8.332031 L 26.667969 3.332031 C 26.671875 2.882812 26.496094 2.449219 26.175781 2.128906 C 25.859375 1.8125 25.425781 1.636719 24.972656 1.644531 Z M 9.660156 7.996094 C 8.984375 8 8.375 8.410156 8.121094 9.039062 C 7.867188 9.667969 8.015625 10.386719 8.503906 10.859375 L 12.039062 14.394531 C 12.457031 14.828125 13.078125 15.003906 13.660156 14.851562 C 14.246094 14.699219 14.699219 14.246094 14.851562 13.660156 C 15.003906 13.078125 14.828125 12.457031 14.394531 12.039062 L 10.859375 8.503906 C 10.542969 8.179688 10.113281 7.996094 9.660156 7.996094 Z M 40.285156 7.996094 C 39.851562 8.011719 39.441406 8.191406 39.140625 8.503906 L 35.605469 12.039062 C 35.171875 12.457031 34.996094 13.078125 35.148438 13.660156 C 35.300781 14.246094 35.753906 14.699219 36.339844 14.851562 C 36.921875 15.003906 37.542969 14.828125 37.960938 14.394531 L 41.496094 10.859375 C 41.992188 10.378906 42.136719 9.648438 41.871094 9.015625 C 41.601562 8.382812 40.972656 7.976562 40.285156 7.996094 Z M 25 13.332031 C 18.558594 13.332031 13.332031 18.558594 13.332031 25 C 13.332031 31.441406 18.558594 36.667969 25 36.667969 C 31.441406 36.667969 36.667969 31.441406 36.667969 25 C 36.667969 18.558594 31.441406 13.332031 25 13.332031 Z M 3.332031 23.332031 C 2.730469 23.324219 2.171875 23.640625 1.871094 24.160156 C 1.566406 24.679688 1.566406 25.320312 1.871094 25.839844 C 2.171875 26.359375 2.730469 26.675781 3.332031 26.667969 L 8.332031 26.667969 C 8.933594 26.675781 9.492188 26.359375 9.796875 25.839844 C 10.097656 25.320312 10.097656 24.679688 9.796875 24.160156 C 9.492188 23.640625 8.933594 23.324219 8.332031 23.332031 Z M 41.667969 23.332031 C 41.066406 23.324219 40.507812 23.640625 40.203125 24.160156 C 39.902344 24.679688 39.902344 25.320312 40.203125 25.839844 C 40.507812 26.359375 41.066406 26.675781 41.667969 26.667969 L 46.667969 26.667969 C 47.269531 26.675781 47.828125 26.359375 48.128906 25.839844 C 48.433594 25.320312 48.433594 24.679688 48.128906 24.160156 C 47.828125 23.640625 47.269531 23.324219 46.667969 23.332031 Z M 13.183594 35.101562 C 12.75 35.113281 12.339844 35.292969 12.039062 35.605469 L 8.503906 39.140625 C 8.066406 39.558594 7.890625 40.179688 8.042969 40.761719 C 8.195312 41.347656 8.652344 41.804688 9.238281 41.957031 C 9.820312 42.109375 10.441406 41.933594 10.859375 41.496094 L 14.394531 37.960938 C 14.886719 37.484375 15.035156 36.75 14.769531 36.117188 C 14.5 35.484375 13.871094 35.082031 13.183594 35.101562 Z M 36.769531 35.101562 C 36.089844 35.101562 35.480469 35.511719 35.222656 36.140625 C 34.96875 36.769531 35.121094 37.488281 35.605469 37.960938 L 39.140625 41.496094 C 39.558594 41.933594 40.179688 42.109375 40.761719 41.957031 C 41.347656 41.804688 41.804688 41.347656 41.957031 40.761719 C 42.109375 40.179688 41.933594 39.558594 41.496094 39.140625 L 37.960938 35.605469 C 37.648438 35.28125 37.21875 35.101562 36.769531 35.101562 Z M 24.972656 39.976562 C 24.054688 39.992188 23.320312 40.746094 23.332031 41.667969 L 23.332031 46.667969 C 23.324219 47.269531 23.640625 47.828125 24.160156 48.128906 C 24.679688 48.433594 25.320312 48.433594 25.839844 48.128906 C 26.359375 47.828125 26.675781 47.269531 26.667969 46.667969 L 26.667969 41.667969 C 26.671875 41.214844 26.496094 40.78125 26.175781 40.464844 C 25.859375 40.144531 25.425781 39.96875 24.972656 39.976562 Z M 24.972656 39.976562 "/>
</g>
</svg>
