<?xml version="1.0" encoding="UTF-8"?>
<svg xmlns="http://www.w3.org/2000/svg" xmlns:xlink="http://www.w3.org/1999/xlink" width="50pt" height="50pt" viewBox="0 0 50 50" version="1.1">
<g id="surface1693">
<path style=" stroke:none;fill-rule:nonzero;fill:rgb(96.078431%,32.54902%,46.27451%);fill-opacity:1;" d="M 25 4.167969 L 20.832031 14.582031 L 10.417969 9.375 L 14.582031 19.792969 L 4.183594 22.800781 L 14.582031 27.082031 L 10.417969 35.417969 L 19.792969 33.332031 L 21.875 45.832031 L 28.125 34.375 L 38.542969 37.5 L 34.375 28.125 L 45.832031 22.917969 L 33.332031 20.832031 L 38.542969 11.457031 L 28.125 14.582031 Z M 25 4.167969 "/>
<path style=" stroke:none;fill-rule:nonzero;fill:rgb(92.156863%,0%,0%);fill-opacity:1;" d="M 24.378906 13.636719 L 26.402344 18.6875 L 30.207031 17.707031 L 28.160156 23.136719 L 35.207031 24.3125 L 30.023438 26.667969 L 32.292969 32.292969 L 26.730469 30.40625 L 23.46875 36.386719 L 22.304688 29.410156 L 16.667969 30.207031 L 19.296875 25.644531 L 14.582031 22.917969 L 18.8125 21.820312 L 17.707031 17.707031 L 22.640625 19.433594 L 24.378906 13.636719 "/>
<path style=" stroke:none;fill-rule:nonzero;fill:rgb(96.078431%,73.72549%,0%);fill-opacity:1;" d="M 25 19.792969 L 22.917969 22.917969 L 19.792969 22.917969 L 21.875 25 L 19.792969 28.125 L 22.917969 27.082031 L 25 31.25 L 26.042969 26.042969 L 30.207031 25 L 26.042969 23.957031 Z M 25 19.792969 "/>
</g>
</svg>
