<?xml version="1.0" encoding="UTF-8"?>
<svg xmlns="http://www.w3.org/2000/svg" xmlns:xlink="http://www.w3.org/1999/xlink" width="50pt" height="50pt" viewBox="0 0 50 50" version="1.1">
<defs>
<radialGradient id="radial0" gradientUnits="userSpaceOnUse" cx="29.55" cy="13.91" fx="29.55" fy="13.91" r="34.28" gradientTransform="matrix(1.041667,0,0,1.041667,0,0)">
<stop offset="0" style="stop-color:rgb(96.078431%,83.921569%,55.686275%);stop-opacity:1;"/>
<stop offset="0.17" style="stop-color:rgb(93.333333%,80.392157%,52.54902%);stop-opacity:1;"/>
<stop offset="0.45" style="stop-color:rgb(85.882353%,70.588235%,44.705882%);stop-opacity:1;"/>
<stop offset="0.69" style="stop-color:rgb(78.039216%,60.392157%,36.078431%);stop-opacity:1;"/>
<stop offset="0.88" style="stop-color:rgb(60.392157%,40.784314%,21.568627%);stop-opacity:1;"/>
<stop offset="1" style="stop-color:rgb(51.372549%,30.980392%,14.117647%);stop-opacity:1;"/>
</radialGradient>
<filter id="alpha" filterUnits="objectBoundingBox" x="0%" y="0%" width="100%" height="100%">
  <feColorMatrix type="matrix" in="SourceGraphic" values="0 0 0 0 1 0 0 0 0 1 0 0 0 0 1 0 0 0 1 0"/>
</filter>
<mask id="mask0">
  <g filter="url(#alpha)">
<rect x="0" y="0" width="50" height="50" style="fill:rgb(0%,0%,0%);fill-opacity:0.160784;stroke:none;"/>
  </g>
</mask>
<clipPath id="clip1">
  <rect width="50" height="50"/>
</clipPath>
<g id="surface28783" clip-path="url(#clip1)">
<path style=" stroke:none;fill-rule:evenodd;fill:rgb(96.862745%,85.490196%,56.862745%);fill-opacity:1;" d="M 30.113281 19.261719 C 30.402344 19.261719 30.636719 19.492188 30.636719 19.78125 C 30.636719 20.070312 30.402344 20.300781 30.113281 20.300781 C 29.34375 20.03125 30.144531 19.792969 30.113281 19.261719 Z M 30.113281 19.261719 "/>
<path style=" stroke:none;fill-rule:evenodd;fill:rgb(96.862745%,85.490196%,56.862745%);fill-opacity:1;" d="M 35.800781 26.886719 C 36.925781 27.125 36.394531 29.917969 34.761719 28.90625 C 34.75 27.886719 36.136719 28.300781 35.800781 26.886719 Z M 35.800781 26.886719 "/>
<path style=" stroke:none;fill-rule:evenodd;fill:rgb(96.862745%,85.490196%,56.862745%);fill-opacity:1;" d="M 34.375 24.269531 C 34.875 24.269531 34.75 24.90625 34.855469 25.3125 C 34.375 25.28125 34.449219 24.667969 34.375 24.269531 Z M 34.375 24.269531 "/>
<path style=" stroke:none;fill-rule:evenodd;fill:rgb(96.862745%,85.490196%,56.862745%);fill-opacity:1;" d="M 33.730469 27.332031 C 34.230469 27.332031 34.105469 27.980469 34.207031 28.375 C 33.71875 28.34375 33.832031 27.738281 33.730469 27.332031 Z M 33.730469 27.332031 "/>
<path style=" stroke:none;fill-rule:evenodd;fill:rgb(96.862745%,85.490196%,56.862745%);fill-opacity:1;" d="M 33.792969 25.28125 L 33.792969 26.324219 L 32.75 26.324219 L 32.75 25.28125 Z M 33.792969 25.28125 "/>
<path style=" stroke:none;fill-rule:evenodd;fill:rgb(96.862745%,85.490196%,56.862745%);fill-opacity:1;" d="M 31.59375 29.84375 C 33.269531 30.644531 29.511719 31.0625 31.59375 29.84375 Z M 31.59375 29.84375 "/>
<path style=" stroke:none;fill-rule:evenodd;fill:rgb(96.862745%,85.490196%,56.862745%);fill-opacity:1;" d="M 30.863281 37.019531 C 32.386719 37.832031 30.417969 39.3125 29.261719 39.03125 C 29.0625 36.40625 31.074219 39.074219 30.863281 37.019531 Z M 30.863281 37.019531 "/>
<path style=" stroke:none;fill-rule:evenodd;fill:rgb(96.862745%,85.490196%,56.862745%);fill-opacity:1;" d="M 32.792969 35.074219 C 32.46875 36.113281 31.957031 36.113281 31.238281 35.542969 L 31.238281 34.5 C 31.671875 34.867188 32.222656 35.070312 32.792969 35.074219 Z M 32.792969 35.074219 "/>
<path style=" stroke:none;fill-rule:evenodd;fill:rgb(96.862745%,85.490196%,56.862745%);fill-opacity:1;" d="M 27.875 33.832031 C 27.09375 36.824219 25.511719 31.894531 27.875 33.832031 Z M 27.875 33.832031 "/>
<path style=" stroke:none;fill-rule:evenodd;fill:rgb(96.862745%,85.490196%,56.862745%);fill-opacity:1;" d="M 26.042969 42.011719 C 28.050781 42.667969 23.957031 42.542969 26.042969 42.011719 Z M 26.042969 42.011719 "/>
<path style=" stroke:none;fill-rule:evenodd;fill:rgb(96.862745%,85.490196%,56.862745%);fill-opacity:1;" d="M 29.394531 25.542969 L 29.394531 26.582031 C 28.449219 25.542969 28.105469 26.488281 26.824219 26.5 C 26.699219 25.3125 28.324219 25.980469 28.417969 25.011719 C 28.792969 25.105469 28.875 25.519531 29.394531 25.542969 Z M 29.394531 25.542969 "/>
<path style=" stroke:none;fill-rule:evenodd;fill:rgb(96.862745%,85.490196%,56.862745%);fill-opacity:1;" d="M 31.886719 42.46875 C 31.769531 43.738281 30.144531 42.5625 29.800781 42.40625 C 29.949219 41.855469 30.84375 42.09375 30.84375 41.363281 C 31.449219 41.550781 31.25 42.449219 31.886719 42.46875 Z M 31.886719 42.46875 "/>
<path style=" stroke:none;fill-rule:evenodd;fill:rgb(96.862745%,85.490196%,56.862745%);fill-opacity:1;" d="M 24.605469 39.90625 C 26.613281 40.5625 22.519531 40.4375 24.605469 39.90625 Z M 24.605469 39.90625 "/>
<path style=" stroke:none;fill-rule:evenodd;fill:rgb(96.862745%,85.490196%,56.862745%);fill-opacity:1;" d="M 24.238281 34.75 C 24.527344 34.75 24.761719 34.984375 24.761719 35.269531 C 24.761719 35.558594 24.527344 35.792969 24.238281 35.792969 C 23.46875 35.53125 24.28125 35.332031 24.238281 34.75 Z M 24.238281 34.75 "/>
<path style=" stroke:none;fill-rule:evenodd;fill:rgb(96.862745%,85.490196%,56.862745%);fill-opacity:1;" d="M 22.480469 41.894531 C 24.488281 42.550781 20.394531 42.425781 22.480469 41.894531 Z M 22.480469 41.894531 "/>
<path style=" stroke:none;fill-rule:evenodd;fill:rgb(96.862745%,85.490196%,56.862745%);fill-opacity:1;" d="M 22.15625 35.71875 C 22.363281 36.824219 21.394531 36.675781 20.582031 36.699219 C 20.699219 36.28125 21.113281 36.199219 21.125 35.65625 Z M 22.15625 35.71875 "/>
<path style=" stroke:none;fill-rule:evenodd;fill:rgb(96.862745%,85.490196%,56.862745%);fill-opacity:1;" d="M 19.425781 29.167969 C 19.230469 29.832031 18.5 29.949219 18.386719 30.675781 C 17.082031 30.386719 18.386719 28.644531 19.425781 29.167969 Z M 19.425781 29.167969 "/>
<path style=" stroke:none;fill-rule:evenodd;fill:rgb(96.862745%,85.490196%,56.862745%);fill-opacity:1;" d="M 20.457031 42.0625 C 20.269531 43.105469 19.417969 43.394531 18.855469 44.074219 C 17.574219 43.519531 19.332031 41.8125 20.457031 42.0625 Z M 20.457031 42.0625 "/>
<path style=" stroke:none;fill-rule:evenodd;fill:rgb(96.862745%,85.490196%,56.862745%);fill-opacity:1;" d="M 15.449219 36.542969 C 16.636719 38.300781 13.761719 35.25 15.449219 36.542969 Z M 15.449219 36.542969 "/>
<path style=" stroke:none;fill-rule:evenodd;fill:rgb(96.862745%,85.490196%,56.862745%);fill-opacity:1;" d="M 15.011719 33.949219 C 15.511719 33.949219 15.386719 34.59375 15.488281 34.988281 C 15 34.96875 15.113281 34.375 15.011719 33.949219 Z M 15.011719 33.949219 "/>
<path style=" stroke:none;fill-rule:evenodd;fill:rgb(96.862745%,85.490196%,56.862745%);fill-opacity:1;" d="M 13.542969 30.824219 C 14.042969 30.824219 13.917969 31.46875 14.019531 31.863281 C 13.542969 31.832031 13.667969 31.25 13.542969 30.824219 Z M 13.542969 30.824219 "/>
<path style=" stroke:none;fill-rule:evenodd;fill:rgb(96.862745%,85.490196%,56.862745%);fill-opacity:1;" d="M 12.15625 26.667969 C 12.65625 26.667969 12.53125 27.3125 12.636719 27.707031 C 12.136719 27.675781 12.261719 27.082031 12.15625 26.667969 Z M 12.15625 26.667969 "/>
<path style=" stroke:none;fill-rule:evenodd;fill:rgb(96.862745%,85.490196%,56.862745%);fill-opacity:1;" d="M 11.542969 29.730469 C 12.042969 29.730469 11.917969 30.375 12.019531 30.769531 C 11.53125 30.738281 11.644531 30.136719 11.542969 29.730469 Z M 11.542969 29.730469 "/>
<path style=" stroke:none;fill-rule:evenodd;fill:rgb(96.862745%,85.490196%,56.862745%);fill-opacity:1;" d="M 11.988281 31.800781 L 11.988281 32.84375 L 10.949219 32.84375 L 10.949219 31.800781 Z M 11.988281 31.800781 "/>
<path style=" stroke:none;fill-rule:evenodd;fill:rgb(96.862745%,85.490196%,56.862745%);fill-opacity:1;" d="M 10.582031 27.644531 C 11.1875 27.75 10.988281 28.59375 11.050781 29.207031 C 10.417969 29.105469 10.644531 28.25 10.582031 27.644531 Z M 10.582031 27.644531 "/>
<path style=" stroke:none;fill-rule:evenodd;fill:rgb(96.862745%,85.490196%,56.862745%);fill-opacity:1;" d="M 9.894531 33.28125 C 11.90625 33.9375 7.8125 33.8125 9.894531 33.28125 Z M 9.894531 33.28125 "/>
<path style=" stroke:none;fill-rule:evenodd;fill:rgb(96.862745%,85.490196%,56.862745%);fill-opacity:1;" d="M 9.636719 25 C 9.921875 25 10.15625 25.234375 10.15625 25.519531 C 10.15625 25.808594 9.921875 26.042969 9.636719 26.042969 C 8.863281 25.824219 9.667969 25.625 9.636719 25 Z M 9.636719 25 "/>
<path style=" stroke:none;fill-rule:evenodd;fill:rgb(96.862745%,85.490196%,56.862745%);fill-opacity:1;" d="M 6.9375 27.082031 C 7.226562 27.082031 7.457031 27.316406 7.457031 27.605469 C 7.457031 27.890625 7.226562 28.125 6.9375 28.125 C 6.167969 27.90625 6.980469 27.707031 6.9375 27.082031 Z M 6.9375 27.082031 "/>
<path style=" stroke:none;fill-rule:evenodd;fill:rgb(96.862745%,85.490196%,56.862745%);fill-opacity:1;" d="M 41.667969 15.082031 C 43.113281 16.125 39.644531 16.425781 39.03125 17.0625 C 38.480469 16.917969 38.71875 16.019531 37.988281 16.019531 C 38.25 15.40625 40.75 16.292969 41.667969 15.082031 Z M 41.667969 15.082031 "/>
<path style=" stroke:none;fill-rule:evenodd;fill:rgb(96.862745%,85.490196%,56.862745%);fill-opacity:1;" d="M 30.011719 31.332031 C 28.78125 29.9375 31.582031 28.40625 30.011719 31.332031 Z M 30.011719 31.332031 "/>
<path style=" stroke:none;fill-rule:evenodd;fill:rgb(96.862745%,85.490196%,56.862745%);fill-opacity:1;" d="M 22.042969 22.855469 C 21.957031 23.824219 20.332031 23.15625 20.449219 24.34375 C 19.375 24.15625 21.050781 22.582031 22.042969 22.855469 Z M 22.042969 22.855469 "/>
<path style=" stroke:none;fill-rule:evenodd;fill:rgb(96.862745%,85.490196%,56.862745%);fill-opacity:1;" d="M 19.488281 22.261719 C 18.449219 22.5 18.449219 20.175781 18.988281 21.730469 C 20.082031 21.1875 20.09375 21.21875 19.488281 22.261719 Z M 19.488281 22.261719 "/>
<path style=" stroke:none;fill-rule:evenodd;fill:rgb(96.862745%,85.490196%,56.862745%);fill-opacity:1;" d="M 18.75 29.4375 C 18.167969 28.65625 16.667969 28.769531 16.761719 27.355469 C 17.34375 28.125 18.875 27.988281 18.75 29.4375 Z M 18.75 29.4375 "/>
<path style=" stroke:none;fill-rule:evenodd;fill:rgb(96.862745%,85.490196%,56.862745%);fill-opacity:1;" d="M 13.792969 40.082031 C 12.050781 39.59375 14.199219 37.449219 11.832031 36.957031 C 11.042969 35.75 14.886719 37.78125 13.792969 40.082031 Z M 13.792969 40.082031 "/>
<path style=" stroke:none;fill-rule:evenodd;fill:rgb(96.862745%,85.490196%,56.862745%);fill-opacity:1;" d="M 31.613281 25.105469 C 32.988281 26.707031 29.582031 24.488281 31.613281 25.105469 Z M 31.613281 25.105469 "/>
<path style=" stroke:none;fill-rule:evenodd;fill:rgb(96.862745%,85.490196%,56.862745%);fill-opacity:1;" d="M 32.292969 21.25 C 32.761719 21.707031 32.167969 22.386719 31.730469 22.113281 C 31.25 21.511719 32.019531 21.761719 32.292969 21.25 Z M 32.292969 21.25 "/>
<path style=" stroke:none;fill-rule:evenodd;fill:rgb(96.862745%,85.490196%,56.862745%);fill-opacity:1;" d="M 38.636719 9.949219 C 40.011719 11.550781 36.613281 9.332031 38.636719 9.949219 Z M 38.636719 9.949219 "/>
<path style=" stroke:none;fill-rule:evenodd;fill:rgb(96.862745%,85.490196%,56.862745%);fill-opacity:1;" d="M 22.53125 15.738281 C 20.957031 17.519531 20.15625 13.65625 22.53125 15.738281 Z M 22.53125 15.738281 "/>
<path style=" stroke:none;fill-rule:evenodd;fill:rgb(96.862745%,85.490196%,56.862745%);fill-opacity:1;" d="M 24.5 26.605469 C 24.90625 26.886719 24.5 27.34375 24.363281 27.75 C 23.957031 27.457031 24.375 27 24.5 26.605469 Z M 24.5 26.605469 "/>
<path style=" stroke:none;fill-rule:evenodd;fill:rgb(96.862745%,85.490196%,56.862745%);fill-opacity:1;" d="M 29.894531 11.824219 C 30.875 12.363281 29.09375 13.480469 28.917969 14.261719 C 28.652344 13.816406 28.605469 13.277344 28.800781 12.796875 C 28.992188 12.320312 29.398438 11.957031 29.894531 11.824219 Z M 29.894531 11.824219 "/>
<path style=" stroke:none;fill-rule:evenodd;fill:rgb(96.862745%,85.490196%,56.862745%);fill-opacity:1;" d="M 16.582031 18.980469 C 17.957031 20.582031 14.550781 18.363281 16.582031 18.980469 Z M 16.582031 18.980469 "/>
<path style=" stroke:none;fill-rule:evenodd;fill:rgb(96.862745%,85.490196%,56.862745%);fill-opacity:1;" d="M 16.855469 16.667969 C 17.832031 18.832031 15.019531 16.363281 16.855469 16.667969 Z M 16.855469 16.667969 "/>
<path style=" stroke:none;fill-rule:evenodd;fill:rgb(96.862745%,85.490196%,56.862745%);fill-opacity:1;" d="M 14.738281 10.199219 C 15.6875 10.574219 14.082031 12.574219 13.46875 11.238281 L 14.03125 10.375 C 14.34375 10.65625 14.582031 10.417969 14.738281 10.199219 Z M 14.738281 10.199219 "/>
<path style=" stroke:none;fill-rule:evenodd;fill:rgb(96.862745%,85.490196%,56.862745%);fill-opacity:1;" d="M 7.84375 17.082031 C 8.300781 17.480469 7.699219 18.125 7.425781 18.65625 C 6.980469 18.261719 7.582031 17.636719 7.84375 17.082031 Z M 7.84375 17.082031 "/>
<path style=" stroke:none;fill-rule:evenodd;fill:rgb(96.862745%,85.490196%,56.862745%);fill-opacity:1;" d="M 12.324219 19.875 C 9.980469 20.613281 11.730469 17.625 12.324219 19.875 Z M 12.324219 19.875 "/>
<path style=" stroke:none;fill-rule:evenodd;fill:rgb(96.862745%,85.490196%,56.862745%);fill-opacity:1;" d="M 31.71875 39.4375 C 33.09375 41.042969 29.6875 38.824219 31.71875 39.4375 Z M 31.71875 39.4375 "/>
<path style=" stroke:none;fill-rule:evenodd;fill:rgb(96.862745%,85.490196%,56.862745%);fill-opacity:1;" d="M 30.269531 37.886719 C 31.644531 39.488281 28.25 37.269531 30.269531 37.886719 Z M 30.269531 37.886719 "/>
<path style=" stroke:none;fill-rule:evenodd;fill:rgb(96.862745%,85.490196%,56.862745%);fill-opacity:1;" d="M 36.300781 27.707031 C 36.707031 27.988281 36.300781 28.457031 36.167969 28.855469 C 35.761719 28.5625 36.1875 28.125 36.300781 27.707031 Z M 36.300781 27.707031 "/>
<path style=" stroke:none;fill-rule:evenodd;fill:rgb(96.862745%,85.490196%,56.862745%);fill-opacity:1;" d="M 43.863281 24.5625 C 44.84375 26.730469 42.03125 24.261719 43.863281 24.5625 Z M 43.863281 24.5625 "/>
<path style=" stroke:none;fill-rule:evenodd;fill:rgb(96.862745%,85.490196%,56.862745%);fill-opacity:1;" d="M 25.332031 42.636719 C 23.9375 44.386719 23.136719 40.550781 25.332031 42.636719 Z M 25.332031 42.636719 "/>
<path style=" stroke:none;fill-rule:evenodd;fill:rgb(96.862745%,85.490196%,56.862745%);fill-opacity:1;" d="M 28.25 35.332031 C 29.625 36.9375 26.21875 34.71875 28.25 35.332031 Z M 28.25 35.332031 "/>
<path style=" stroke:none;fill-rule:evenodd;fill:rgb(96.862745%,85.490196%,56.862745%);fill-opacity:1;" d="M 35.050781 40.1875 C 34.59375 37.605469 37.65625 38.769531 35.050781 40.1875 Z M 35.050781 40.1875 "/>
<path style=" stroke:none;fill-rule:evenodd;fill:rgb(96.862745%,85.490196%,56.862745%);fill-opacity:1;" d="M 23.4375 38.949219 C 23.855469 39.230469 23.4375 39.699219 23.300781 40.09375 C 22.917969 39.800781 23.324219 39.34375 23.4375 38.949219 Z M 23.4375 38.949219 "/>
<path style=" stroke:none;fill-rule:evenodd;fill:rgb(96.862745%,85.490196%,56.862745%);fill-opacity:1;" d="M 31.574219 24.613281 C 32.550781 26.78125 29.738281 24.3125 31.574219 24.613281 Z M 31.574219 24.613281 "/>
<path style=" stroke:none;fill-rule:evenodd;fill:rgb(96.862745%,85.490196%,56.862745%);fill-opacity:1;" d="M 42.980469 29 C 43.957031 31.167969 41.144531 28.699219 42.980469 29 Z M 42.980469 29 "/>
<path style=" stroke:none;fill-rule:evenodd;fill:rgb(96.862745%,85.490196%,56.862745%);fill-opacity:1;" d="M 34.96875 32.699219 C 32.75 34.84375 33.925781 29.8125 34.96875 32.699219 Z M 34.96875 32.699219 "/>
<path style=" stroke:none;fill-rule:evenodd;fill:rgb(96.862745%,85.490196%,56.862745%);fill-opacity:1;" d="M 22.511719 30.96875 C 22.980469 31.425781 22.386719 32.105469 21.949219 31.832031 C 21.449219 31.25 22.238281 31.480469 22.511719 30.96875 Z M 22.511719 30.96875 "/>
<path style=" stroke:none;fill-rule:evenodd;fill:rgb(96.862745%,85.490196%,56.862745%);fill-opacity:1;" d="M 17.324219 39.863281 L 16.761719 40.730469 C 15.71875 40.332031 16.34375 39.582031 16.761719 38.875 C 17.03125 39.175781 16.886719 39.582031 17.324219 39.863281 Z M 17.324219 39.863281 "/>
<path style=" stroke:none;fill-rule:evenodd;fill:rgb(96.862745%,85.490196%,56.862745%);fill-opacity:1;" d="M 41.3125 20.261719 C 41.136719 21.03125 38.949219 20.261719 40.042969 21.300781 C 37.519531 21.425781 40.28125 18.988281 40.4375 17.875 C 42.0625 18.363281 40.105469 19.644531 41.3125 20.261719 Z M 41.3125 20.261719 "/>
<path style=" stroke:none;fill-rule:evenodd;fill:rgb(96.862745%,85.490196%,56.862745%);fill-opacity:1;" d="M 15.625 38.738281 C 17 40.34375 13.59375 38.125 15.625 38.738281 Z M 15.625 38.738281 "/>
<path style=" stroke:none;fill-rule:evenodd;fill:rgb(96.862745%,85.490196%,56.862745%);fill-opacity:1;" d="M 16.5 15.386719 C 14.886719 14.855469 15.613281 13.84375 14.90625 13.113281 C 15.894531 12.355469 17.855469 14.4375 16.5 15.386719 Z M 16.5 15.386719 "/>
<path style=" stroke:none;fill-rule:evenodd;fill:rgb(96.862745%,85.490196%,56.862745%);fill-opacity:1;" d="M 21.175781 26.425781 C 21.9375 28.511719 18.28125 26.019531 21.175781 26.425781 Z M 21.175781 26.425781 "/>
<path style=" stroke:none;fill-rule:evenodd;fill:rgb(96.862745%,85.490196%,56.862745%);fill-opacity:1;" d="M 23.144531 23.40625 C 20.800781 24.144531 22.550781 21.15625 23.144531 23.40625 Z M 23.144531 23.40625 "/>
<path style=" stroke:none;fill-rule:evenodd;fill:rgb(96.862745%,85.490196%,56.862745%);fill-opacity:1;" d="M 22.699219 21.269531 C 23.738281 22.832031 20.324219 21.269531 22.699219 21.269531 Z M 22.699219 21.269531 "/>
<path style=" stroke:none;fill-rule:evenodd;fill:rgb(96.862745%,85.490196%,56.862745%);fill-opacity:1;" d="M 20.832031 23.144531 C 21.300781 23.605469 20.707031 24.28125 20.269531 24.011719 C 19.792969 23.40625 20.59375 23.65625 20.832031 23.144531 Z M 20.832031 23.144531 "/>
<path style=" stroke:none;fill-rule:evenodd;fill:rgb(96.862745%,85.490196%,56.862745%);fill-opacity:1;" d="M 12.925781 7.988281 C 13.332031 8.269531 12.925781 8.730469 12.792969 9.136719 C 12.386719 8.855469 12.800781 8.386719 12.925781 7.988281 Z M 12.925781 7.988281 "/>
<path style=" stroke:none;fill-rule:evenodd;fill:rgb(96.862745%,85.490196%,56.862745%);fill-opacity:1;" d="M 11.78125 13.738281 C 11.480469 13.917969 9.625 14.699219 10.65625 15.457031 C 9.8125 16.15625 8.40625 14.15625 7.8125 16.050781 C 7.042969 15.074219 9.136719 13.113281 10.082031 14.457031 C 10.332031 13.792969 9.238281 13.417969 8.644531 12.90625 C 9.375 11.855469 10.636719 13 11.78125 13.738281 Z M 11.78125 13.738281 "/>
<path style=" stroke:none;fill-rule:evenodd;fill:rgb(96.862745%,85.490196%,56.862745%);fill-opacity:1;" d="M 11.824219 31.355469 C 11.917969 33.4375 11.0625 29.375 11.824219 31.355469 Z M 11.824219 31.355469 "/>
<path style=" stroke:none;fill-rule:evenodd;fill:rgb(96.862745%,85.490196%,56.862745%);fill-opacity:1;" d="M 14.761719 25.917969 C 15.65625 28.074219 12.46875 25.457031 12.0625 27.230469 C 10.46875 24.886719 13.6875 25.988281 14.761719 25.917969 Z M 14.761719 25.917969 "/>
<path style=" stroke:none;fill-rule:evenodd;fill:rgb(96.862745%,85.490196%,56.862745%);fill-opacity:1;" d="M 16.292969 7.800781 C 17.03125 10.144531 14.042969 8.394531 16.292969 7.800781 Z M 16.292969 7.800781 "/>
<path style=" stroke:none;fill-rule:evenodd;fill:rgb(96.862745%,85.490196%,56.862745%);fill-opacity:1;" d="M 8.96875 31.957031 C 9.4375 32.417969 8.84375 33.09375 8.40625 32.824219 C 7.90625 32.21875 8.699219 32.46875 8.96875 31.957031 Z M 8.96875 31.957031 "/>
<path style=" stroke:none;fill-rule:evenodd;fill:rgb(96.862745%,85.490196%,56.862745%);fill-opacity:1;" d="M 13.449219 23.21875 C 14.824219 24.832031 11.417969 22.605469 13.449219 23.21875 Z M 13.449219 23.21875 "/>
<path style=" stroke:none;fill-rule:evenodd;fill:rgb(96.862745%,85.490196%,56.862745%);fill-opacity:1;" d="M 21.300781 20.21875 C 20.980469 18.394531 24.175781 18.53125 21.300781 20.21875 Z M 21.300781 20.21875 "/>
<path style=" stroke:none;fill-rule:evenodd;fill:rgb(96.862745%,85.490196%,56.862745%);fill-opacity:1;" d="M 37.5 36.042969 C 37.019531 36.4375 36.03125 36.636719 36.355469 35.90625 C 35.6875 35.65625 35.3125 36.75 34.800781 37.34375 C 34.46875 36.59375 34.566406 35.71875 35.0625 35.0625 C 35.9375 35.917969 36.457031 34.886719 37.5 36.042969 Z M 37.5 36.042969 "/>
<path style=" stroke:none;fill-rule:evenodd;fill:rgb(96.862745%,85.490196%,56.862745%);fill-opacity:1;" d="M 41.917969 32.386719 C 43.261719 34 38.167969 33.425781 39.917969 31.6875 C 40.113281 32.625 41.144531 33.332031 41.917969 32.386719 Z M 41.917969 32.386719 "/>
<path style=" stroke:none;fill-rule:evenodd;fill:rgb(96.862745%,85.490196%,56.862745%);fill-opacity:1;" d="M 41.113281 29.917969 C 40.34375 32.15625 38.15625 27.613281 37.550781 30.667969 C 36.417969 29.917969 34.988281 29.230469 34.824219 28.269531 C 36.917969 28.769531 38.988281 29.261719 41.113281 29.917969 Z M 41.113281 29.917969 "/>
<path style=" stroke:none;fill-rule:evenodd;fill:rgb(96.862745%,85.490196%,56.862745%);fill-opacity:1;" d="M 39.4375 24.894531 C 38.394531 22.042969 39.980469 24.1875 40.480469 23.082031 C 39.546875 24.089844 39.710938 24.828125 40.96875 25.300781 C 40.46875 25.855469 39.582031 24.613281 39.113281 25.300781 C 38.730469 24.917969 39.199219 24.738281 39.4375 24.894531 Z M 39.4375 24.894531 "/>
<path style=" stroke:none;fill-rule:evenodd;fill:rgb(96.862745%,85.490196%,56.862745%);fill-opacity:1;" d="M 26.28125 38.355469 C 28.199219 37.71875 25 39.28125 26.144531 39.5 C 25.75 39.9375 25.5625 39.5 25.71875 39.21875 C 25.40625 38.894531 25.199219 39.125 25.011719 39.363281 C 23.863281 38.011719 26.042969 38.824219 26.28125 38.355469 Z M 26.28125 38.355469 "/>
<path style=" stroke:none;fill-rule:evenodd;fill:rgb(96.862745%,85.490196%,56.862745%);fill-opacity:1;" d="M 23.457031 40.800781 C 25.542969 40.480469 21.425781 41.34375 23.457031 40.800781 Z M 23.457031 40.800781 "/>
<path style=" stroke:none;fill-rule:evenodd;fill:rgb(96.862745%,85.490196%,56.862745%);fill-opacity:1;" d="M 22.167969 39.957031 C 20.792969 39.703125 19.394531 39.617188 18 39.707031 C 19.925781 38.707031 20.4375 39.144531 22.167969 39.957031 Z M 22.167969 39.957031 "/>
<path style=" stroke:none;fill-rule:evenodd;fill:rgb(96.862745%,85.490196%,56.862745%);fill-opacity:1;" d="M 36.875 18.480469 C 36.730469 16.761719 34.605469 17.1875 35.5625 15.78125 C 36.050781 16.667969 37.886719 17.269531 36.875 18.480469 Z M 36.875 18.480469 "/>
<path style=" stroke:none;fill-rule:evenodd;fill:rgb(96.862745%,85.490196%,56.862745%);fill-opacity:1;" d="M 33.863281 11.457031 C 34.699219 10.71875 35.082031 13.136719 36.167969 13.542969 C 35.667969 13.738281 32.863281 12.96875 34.894531 14.582031 C 33.792969 16 33.761719 13.792969 33.042969 14.582031 C 32.292969 14.136719 35.625 12.5 33.863281 11.457031 Z M 33.863281 11.457031 "/>
<path style=" stroke:none;fill-rule:evenodd;fill:rgb(96.862745%,85.490196%,56.862745%);fill-opacity:1;" d="M 24.90625 28.238281 C 25.363281 28.636719 24.761719 29.28125 24.488281 29.8125 C 24.28125 29.300781 24.0625 28.769531 23.625 29.25 C 22.542969 28.199219 24.730469 29.011719 24.90625 28.238281 Z M 24.90625 28.238281 "/>
<path style=" stroke:none;fill-rule:evenodd;fill:rgb(96.862745%,85.490196%,56.862745%);fill-opacity:1;" d="M 29.800781 22.042969 C 28.550781 21.96875 27.488281 22.84375 26.09375 22.042969 C 26.09375 21.425781 25.394531 21 26.09375 20.1875 C 26.28125 22.6875 27.9375 20.925781 29.800781 22.042969 Z M 29.800781 22.042969 "/>
<path style=" stroke:none;fill-rule:evenodd;fill:rgb(96.862745%,85.490196%,56.862745%);fill-opacity:1;" d="M 30.925781 17.644531 C 32.9375 18.300781 28.84375 18.175781 30.925781 17.644531 Z M 30.925781 17.644531 "/>
<path style=" stroke:none;fill-rule:evenodd;fill:rgb(96.862745%,85.490196%,56.862745%);fill-opacity:1;" d="M 40.25 11.363281 C 41.375 11.605469 40.84375 14.394531 39.207031 13.386719 C 39.199219 12.363281 40.625 12.78125 40.25 11.363281 Z M 40.25 11.363281 "/>
<path style=" stroke:none;fill-rule:evenodd;fill:rgb(96.862745%,85.490196%,56.862745%);fill-opacity:1;" d="M 35.050781 8.738281 C 34.6875 8.738281 34.625 8.375 34.59375 8.0625 L 34.957031 8.230469 C 34.972656 8.402344 35.003906 8.574219 35.050781 8.738281 Z M 35.050781 8.738281 "/>
<path style=" stroke:none;fill-rule:evenodd;fill:rgb(96.862745%,85.490196%,56.862745%);fill-opacity:1;" d="M 27.3125 18.050781 C 27.8125 18.050781 27.6875 18.699219 27.792969 19.09375 C 27.292969 19.0625 27.417969 18.449219 27.3125 18.050781 Z M 27.3125 18.050781 "/>
<path style=" stroke:none;fill-rule:evenodd;fill:rgb(96.862745%,85.490196%,56.862745%);fill-opacity:1;" d="M 27.375 16 L 27.375 17.042969 L 26.332031 17.042969 L 26.332031 16 Z M 27.375 16 "/>
<path style=" stroke:none;fill-rule:evenodd;fill:rgb(96.862745%,85.490196%,56.862745%);fill-opacity:1;" d="M 20.230469 14.269531 L 20.230469 14.75 C 20.082031 14.578125 19.894531 14.445312 19.6875 14.355469 Z M 20.230469 14.269531 "/>
<path style=" stroke:none;fill-rule:evenodd;fill:rgb(96.862745%,85.490196%,56.862745%);fill-opacity:1;" d="M 12.34375 20.167969 C 12.28125 20.078125 12.203125 20 12.113281 19.9375 C 11.824219 19.722656 11.507812 19.542969 11.175781 19.394531 C 11.175781 19.394531 11.175781 19.394531 11.125 19.394531 L 11.550781 18.855469 C 11.972656 19.035156 12.257812 19.4375 12.292969 19.894531 C 12.324219 19.984375 12.339844 20.074219 12.34375 20.167969 Z M 12.34375 20.167969 "/>
<path style=" stroke:none;fill-rule:evenodd;fill:rgb(96.862745%,85.490196%,56.862745%);fill-opacity:1;" d="M 25.199219 15.824219 C 26.574219 17.425781 23.167969 15.207031 25.199219 15.824219 Z M 25.199219 15.824219 "/>
<path style=" stroke:none;fill-rule:evenodd;fill:rgb(96.862745%,85.490196%,56.862745%);fill-opacity:1;" d="M 18.15625 5.59375 C 18.5625 5.875 18.15625 6.332031 18.019531 6.738281 C 17.613281 6.449219 18.042969 5.988281 18.15625 5.59375 Z M 18.15625 5.59375 "/>
<path style=" stroke:none;fill-rule:evenodd;fill:rgb(96.862745%,85.490196%,56.862745%);fill-opacity:1;" d="M 34.59375 20.644531 C 34.515625 20.738281 34.417969 20.816406 34.3125 20.875 C 34.03125 21.042969 33.71875 21.042969 33.488281 21.386719 C 33.3125 21.035156 33.253906 20.636719 33.332031 20.25 C 33.402344 19.957031 33.496094 19.671875 33.613281 19.394531 C 33.964844 19.792969 34.292969 20.210938 34.59375 20.644531 Z M 34.59375 20.644531 "/>
<path style=" stroke:none;fill-rule:evenodd;fill:rgb(96.862745%,85.490196%,56.862745%);fill-opacity:1;" d="M 33.332031 13.269531 C 33.230469 13.761719 32.644531 13.550781 32.230469 13.582031 C 32.292969 13.09375 32.875 13.3125 33.332031 13.269531 Z M 33.332031 13.269531 "/>
<path style=" stroke:none;fill-rule:evenodd;fill:rgb(96.862745%,85.490196%,56.862745%);fill-opacity:1;" d="M 25.15625 15.332031 C 26.136719 17.5 23.324219 15.03125 25.15625 15.332031 Z M 25.15625 15.332031 "/>
<path style=" stroke:none;fill-rule:evenodd;fill:rgb(96.862745%,85.490196%,56.862745%);fill-opacity:1;" d="M 23.5 12.21875 C 21.28125 14.363281 22.457031 9.332031 23.5 12.21875 Z M 23.5 12.21875 "/>
<path style=" stroke:none;fill-rule:evenodd;fill:rgb(96.862745%,85.490196%,56.862745%);fill-opacity:1;" d="M 19.011719 9.375 C 18.78125 9.425781 18.761719 9.542969 19.15625 9.9375 C 18.96875 9.953125 18.78125 9.953125 18.59375 9.9375 C 17.65625 9.738281 18.34375 8.769531 18.957031 7.855469 C 19.378906 7.65625 19.8125 7.496094 20.261719 7.375 C 20.261719 7.9375 19.667969 8.625 20.457031 9.050781 C 20.3125 9.375 19.375 9.238281 19.011719 9.375 Z M 19.011719 9.375 "/>
<path style=" stroke:none;fill-rule:evenodd;fill:rgb(96.862745%,85.490196%,56.862745%);fill-opacity:1;" d="M 42.707031 21.355469 C 43.46875 23.4375 39.8125 20.949219 42.707031 21.355469 Z M 42.707031 21.355469 "/>
<path style=" stroke:none;fill-rule:evenodd;fill:rgb(96.862745%,85.490196%,56.862745%);fill-opacity:1;" d="M 31.644531 7.824219 C 30.875 10.0625 28.6875 5.519531 28.082031 8.574219 C 26.949219 7.824219 25.519531 7.136719 25.355469 6.175781 C 27.4375 6.675781 29.519531 7.15625 31.644531 7.824219 Z M 31.644531 7.824219 "/>
<path style=" stroke:none;fill-rule:evenodd;fill:rgb(96.862745%,85.490196%,56.862745%);fill-opacity:1;" d="M 27.855469 10.417969 C 26.8125 7.5625 28.394531 9.707031 28.894531 8.605469 C 27.964844 9.609375 28.128906 10.351562 29.386719 10.824219 C 28.886719 11.375 28 10.136719 27.53125 10.824219 C 27.144531 10.417969 27.613281 10.21875 27.855469 10.417969 Z M 27.855469 10.417969 "/>
<path style=" stroke:none;fill-rule:evenodd;fill:rgb(96.862745%,85.490196%,56.862745%);fill-opacity:1;" d="M 23.957031 5.625 C 24.792969 4.886719 25.175781 7.300781 26.261719 7.707031 C 25.761719 7.90625 22.957031 7.136719 24.988281 8.75 C 23.886719 10.167969 23.855469 7.957031 23.136719 8.75 C 22.363281 8.332031 25.730469 6.730469 23.957031 5.625 Z M 23.957031 5.625 "/>
<path style=" stroke:none;fill-rule:evenodd;fill:rgb(96.862745%,85.490196%,56.862745%);fill-opacity:1;" d="M 38.71875 38.0625 C 39.175781 38.457031 38.574219 39.105469 38.300781 39.636719 C 38.09375 39.125 37.875 38.59375 37.4375 39.074219 C 36.355469 38.019531 38.542969 38.832031 38.71875 38.0625 Z M 38.71875 38.0625 "/>
<path style=" stroke:none;fill-rule:evenodd;fill:rgb(96.862745%,85.490196%,56.862745%);fill-opacity:1;" d="M 10.980469 22.8125 C 10.042969 22.8125 9.21875 23.238281 8.292969 23.125 C 7.929688 23.105469 7.574219 23.011719 7.25 22.84375 C 7.25 22.363281 6.855469 21.988281 7 21.480469 C 7.089844 21.378906 7.1875 21.285156 7.292969 21.199219 C 7.289062 21.582031 7.429688 21.953125 7.6875 22.238281 C 7.996094 22.433594 8.367188 22.515625 8.730469 22.46875 C 9.496094 22.339844 10.285156 22.460938 10.980469 22.8125 Z M 10.980469 22.8125 "/>
<path style=" stroke:none;fill-rule:evenodd;fill:rgb(96.862745%,85.490196%,56.862745%);fill-opacity:1;" d="M 14.582031 31.90625 C 13.894531 32.824219 13.863281 30.636719 12.425781 30.5 C 13.832031 29.792969 14.167969 30.75 14.582031 31.90625 Z M 14.582031 31.90625 "/>
<path style=" stroke:none;fill-rule:evenodd;fill:rgb(96.862745%,85.490196%,56.862745%);fill-opacity:1;" d="M 20.644531 33.53125 C 21.199219 34.042969 18.855469 35.417969 17.800781 34.125 C 18.75 33.78125 19.730469 33.875 20.644531 33.53125 Z M 20.644531 33.53125 "/>
</g>
<radialGradient id="radial1" gradientUnits="userSpaceOnUse" cx="24" cy="24.5" fx="24" fy="24.5" r="22.43" gradientTransform="matrix(1.041667,0,0,1.041667,0,0)">
<stop offset="0.44" style="stop-color:rgb(60.784314%,40%,21.176471%);stop-opacity:0;"/>
<stop offset="0.67" style="stop-color:rgb(60.784314%,40%,21.176471%);stop-opacity:0.0117647;"/>
<stop offset="0.75" style="stop-color:rgb(60.784314%,40%,21.176471%);stop-opacity:0.0588235;"/>
<stop offset="0.81" style="stop-color:rgb(60.784314%,40%,21.176471%);stop-opacity:0.129412;"/>
<stop offset="0.86" style="stop-color:rgb(60.784314%,40%,21.176471%);stop-opacity:0.239216;"/>
<stop offset="0.9" style="stop-color:rgb(60.784314%,40%,21.176471%);stop-opacity:0.380392;"/>
<stop offset="0.94" style="stop-color:rgb(60.784314%,40%,21.176471%);stop-opacity:0.560784;"/>
<stop offset="0.97" style="stop-color:rgb(60.784314%,40%,21.176471%);stop-opacity:0.760784;"/>
<stop offset="1" style="stop-color:rgb(60.784314%,40%,21.176471%);stop-opacity:0.988235;"/>
<stop offset="1" style="stop-color:rgb(60.784314%,40%,21.176471%);stop-opacity:1;"/>
</radialGradient>
<linearGradient id="linear0" gradientUnits="userSpaceOnUse" x1="25.27" y1="33.82" x2="25.27" y2="43.22" gradientTransform="matrix(1.041667,0,0,1.041667,0,0)">
<stop offset="0" style="stop-color:rgb(76.078431%,57.647059%,34.509804%);stop-opacity:1;"/>
<stop offset="1" style="stop-color:rgb(96.862745%,85.490196%,56.862745%);stop-opacity:1;"/>
</linearGradient>
<radialGradient id="radial2" gradientUnits="userSpaceOnUse" cx="23.6" cy="30.93" fx="23.6" fy="30.93" r="7.44" gradientTransform="matrix(1.041667,0,0,1.041667,0,0)">
<stop offset="0.14" style="stop-color:rgb(39.215686%,29.019608%,15.294118%);stop-opacity:1;"/>
<stop offset="0.31" style="stop-color:rgb(46.27451%,34.901961%,17.647059%);stop-opacity:1;"/>
<stop offset="0.65" style="stop-color:rgb(37.647059%,25.098039%,9.019608%);stop-opacity:1;"/>
<stop offset="1" style="stop-color:rgb(37.647059%,25.098039%,9.019608%);stop-opacity:1;"/>
<stop offset="1" style="stop-color:rgb(37.254902%,28.627451%,14.901961%);stop-opacity:1;"/>
</radialGradient>
<linearGradient id="linear1" gradientUnits="userSpaceOnUse" x1="12.74" y1="24.66" x2="12.74" y2="32.72" gradientTransform="matrix(1.041667,0,0,1.041667,0,0)">
<stop offset="0" style="stop-color:rgb(76.078431%,57.647059%,34.509804%);stop-opacity:1;"/>
<stop offset="1" style="stop-color:rgb(96.862745%,85.490196%,56.862745%);stop-opacity:1;"/>
</linearGradient>
<radialGradient id="radial3" gradientUnits="userSpaceOnUse" cx="11.22" cy="23.7" fx="11.22" fy="23.7" r="6.25" gradientTransform="matrix(1.041667,0,0,1.041667,0,0)">
<stop offset="0.14" style="stop-color:rgb(39.215686%,29.019608%,15.294118%);stop-opacity:1;"/>
<stop offset="0.31" style="stop-color:rgb(46.27451%,34.901961%,17.647059%);stop-opacity:1;"/>
<stop offset="0.65" style="stop-color:rgb(37.647059%,25.098039%,9.019608%);stop-opacity:1;"/>
<stop offset="1" style="stop-color:rgb(37.647059%,25.098039%,9.019608%);stop-opacity:1;"/>
<stop offset="1" style="stop-color:rgb(37.254902%,28.627451%,14.901961%);stop-opacity:1;"/>
</radialGradient>
<linearGradient id="linear2" gradientUnits="userSpaceOnUse" x1="36.49" y1="19.88" x2="36.49" y2="29.06" gradientTransform="matrix(1.041667,0,0,1.041667,0,0)">
<stop offset="0" style="stop-color:rgb(76.078431%,57.647059%,34.509804%);stop-opacity:1;"/>
<stop offset="1" style="stop-color:rgb(96.862745%,85.490196%,56.862745%);stop-opacity:1;"/>
</linearGradient>
<radialGradient id="radial4" gradientUnits="userSpaceOnUse" cx="38.3" cy="22.81" fx="38.3" fy="22.81" r="7.33" gradientTransform="matrix(0.620042,-0.837031,0.636146,0.47124,1.604167,45.052083)">
<stop offset="0.14" style="stop-color:rgb(39.215686%,29.019608%,15.294118%);stop-opacity:1;"/>
<stop offset="0.31" style="stop-color:rgb(46.27451%,34.901961%,17.647059%);stop-opacity:1;"/>
<stop offset="0.65" style="stop-color:rgb(37.647059%,25.098039%,9.019608%);stop-opacity:1;"/>
<stop offset="1" style="stop-color:rgb(37.647059%,25.098039%,9.019608%);stop-opacity:1;"/>
<stop offset="1" style="stop-color:rgb(37.254902%,28.627451%,14.901961%);stop-opacity:1;"/>
</radialGradient>
<linearGradient id="linear3" gradientUnits="userSpaceOnUse" x1="25.22" y1="21.33" x2="25.22" y2="26.4" gradientTransform="matrix(1.041667,0,0,1.041667,0,0)">
<stop offset="0" style="stop-color:rgb(76.078431%,57.647059%,34.509804%);stop-opacity:1;"/>
<stop offset="1" style="stop-color:rgb(96.862745%,85.490196%,56.862745%);stop-opacity:1;"/>
</linearGradient>
<radialGradient id="radial5" gradientUnits="userSpaceOnUse" cx="23.36" cy="20.16" fx="23.36" fy="20.16" r="6.76" gradientTransform="matrix(1.041667,0,0,1.041667,0,0)">
<stop offset="0.14" style="stop-color:rgb(39.215686%,29.019608%,15.294118%);stop-opacity:1;"/>
<stop offset="0.31" style="stop-color:rgb(46.27451%,34.901961%,17.647059%);stop-opacity:1;"/>
<stop offset="0.65" style="stop-color:rgb(37.647059%,25.098039%,9.019608%);stop-opacity:1;"/>
<stop offset="1" style="stop-color:rgb(37.647059%,25.098039%,9.019608%);stop-opacity:1;"/>
<stop offset="1" style="stop-color:rgb(37.254902%,28.627451%,14.901961%);stop-opacity:1;"/>
</radialGradient>
<linearGradient id="linear4" gradientUnits="userSpaceOnUse" x1="16.62" y1="11.76" x2="16.62" y2="17.88" gradientTransform="matrix(1.041667,0,0,1.041667,0,0)">
<stop offset="0" style="stop-color:rgb(76.078431%,57.647059%,34.509804%);stop-opacity:1;"/>
<stop offset="1" style="stop-color:rgb(96.862745%,85.490196%,56.862745%);stop-opacity:1;"/>
</linearGradient>
<radialGradient id="radial6" gradientUnits="userSpaceOnUse" cx="16.29" cy="12.13" fx="16.29" fy="12.13" r="4.66" gradientTransform="matrix(1.041667,0,0,1.041667,0,0)">
<stop offset="0.14" style="stop-color:rgb(39.215686%,29.019608%,15.294118%);stop-opacity:1;"/>
<stop offset="0.31" style="stop-color:rgb(46.27451%,34.901961%,17.647059%);stop-opacity:1;"/>
<stop offset="0.65" style="stop-color:rgb(37.647059%,25.098039%,9.019608%);stop-opacity:1;"/>
<stop offset="1" style="stop-color:rgb(37.647059%,25.098039%,9.019608%);stop-opacity:1;"/>
<stop offset="1" style="stop-color:rgb(37.254902%,28.627451%,14.901961%);stop-opacity:1;"/>
</radialGradient>
<linearGradient id="linear5" gradientUnits="userSpaceOnUse" x1="31.48" y1="8.75" x2="31.48" y2="14.76" gradientTransform="matrix(1.041667,0,0,1.041667,0,0)">
<stop offset="0" style="stop-color:rgb(76.078431%,57.647059%,34.509804%);stop-opacity:1;"/>
<stop offset="1" style="stop-color:rgb(96.862745%,85.490196%,56.862745%);stop-opacity:1;"/>
</linearGradient>
<radialGradient id="radial7" gradientUnits="userSpaceOnUse" cx="29.54" cy="9.31" fx="29.54" fy="9.31" r="5.6" gradientTransform="matrix(1.041667,0,0,1.041667,0,0)">
<stop offset="0.14" style="stop-color:rgb(39.215686%,29.019608%,15.294118%);stop-opacity:1;"/>
<stop offset="0.31" style="stop-color:rgb(46.27451%,34.901961%,17.647059%);stop-opacity:1;"/>
<stop offset="0.65" style="stop-color:rgb(37.647059%,25.098039%,9.019608%);stop-opacity:1;"/>
<stop offset="1" style="stop-color:rgb(37.647059%,25.098039%,9.019608%);stop-opacity:1;"/>
<stop offset="1" style="stop-color:rgb(37.254902%,28.627451%,14.901961%);stop-opacity:1;"/>
</radialGradient>
<radialGradient id="radial8" gradientUnits="userSpaceOnUse" cx="26.66" cy="34.24" fx="26.66" fy="34.24" r="7.44" gradientTransform="matrix(1.041667,0,0,1.041667,0,0)">
<stop offset="0" style="stop-color:rgb(0%,0%,0%);stop-opacity:0;"/>
<stop offset="0.19" style="stop-color:rgb(1.960784%,1.176471%,0.392157%);stop-opacity:0.0509804;"/>
<stop offset="0.4" style="stop-color:rgb(7.058824%,4.705882%,1.568627%);stop-opacity:0.188235;"/>
<stop offset="0.62" style="stop-color:rgb(15.686275%,10.588235%,3.921569%);stop-opacity:0.419608;"/>
<stop offset="0.85" style="stop-color:rgb(28.235294%,18.823529%,6.666667%);stop-opacity:0.74902;"/>
<stop offset="1" style="stop-color:rgb(37.647059%,25.098039%,9.019608%);stop-opacity:1;"/>
<stop offset="1" style="stop-color:rgb(0%,0%,0%);stop-opacity:1;"/>
</radialGradient>
<radialGradient id="radial9" gradientUnits="userSpaceOnUse" cx="12.04" cy="24.07" fx="12.04" fy="24.07" r="8.25" gradientTransform="matrix(1.041667,0,0,1.041667,0,0)">
<stop offset="0" style="stop-color:rgb(0%,0%,0%);stop-opacity:0;"/>
<stop offset="0.19" style="stop-color:rgb(1.960784%,1.176471%,0.392157%);stop-opacity:0.0509804;"/>
<stop offset="0.4" style="stop-color:rgb(7.058824%,4.705882%,1.568627%);stop-opacity:0.188235;"/>
<stop offset="0.62" style="stop-color:rgb(15.686275%,10.588235%,3.921569%);stop-opacity:0.419608;"/>
<stop offset="0.85" style="stop-color:rgb(28.235294%,18.823529%,6.666667%);stop-opacity:0.74902;"/>
<stop offset="1" style="stop-color:rgb(37.647059%,25.098039%,9.019608%);stop-opacity:1;"/>
<stop offset="1" style="stop-color:rgb(0%,0%,0%);stop-opacity:1;"/>
</radialGradient>
<radialGradient id="radial10" gradientUnits="userSpaceOnUse" cx="35.62" cy="23.13" fx="35.62" fy="23.13" r="7.33" gradientTransform="matrix(-0.292531,-0.99975,1.049729,-0.307167,23.34375,66.770833)">
<stop offset="0" style="stop-color:rgb(0%,0%,0%);stop-opacity:0;"/>
<stop offset="0.19" style="stop-color:rgb(1.960784%,1.176471%,0.392157%);stop-opacity:0.0509804;"/>
<stop offset="0.4" style="stop-color:rgb(7.058824%,4.705882%,1.568627%);stop-opacity:0.188235;"/>
<stop offset="0.62" style="stop-color:rgb(15.686275%,10.588235%,3.921569%);stop-opacity:0.419608;"/>
<stop offset="0.85" style="stop-color:rgb(28.235294%,18.823529%,6.666667%);stop-opacity:0.74902;"/>
<stop offset="1" style="stop-color:rgb(37.647059%,25.098039%,9.019608%);stop-opacity:1;"/>
<stop offset="1" style="stop-color:rgb(0%,0%,0%);stop-opacity:1;"/>
</radialGradient>
<radialGradient id="radial11" gradientUnits="userSpaceOnUse" cx="25.38" cy="20.81" fx="25.38" fy="20.81" r="6.85" gradientTransform="matrix(1.041667,0,0,1.041667,0,0)">
<stop offset="0" style="stop-color:rgb(0%,0%,0%);stop-opacity:0;"/>
<stop offset="0.19" style="stop-color:rgb(1.960784%,1.176471%,0.392157%);stop-opacity:0.0509804;"/>
<stop offset="0.4" style="stop-color:rgb(7.058824%,4.705882%,1.568627%);stop-opacity:0.188235;"/>
<stop offset="0.62" style="stop-color:rgb(15.686275%,10.588235%,3.921569%);stop-opacity:0.419608;"/>
<stop offset="0.85" style="stop-color:rgb(28.235294%,18.823529%,6.666667%);stop-opacity:0.74902;"/>
<stop offset="1" style="stop-color:rgb(37.647059%,25.098039%,9.019608%);stop-opacity:1;"/>
<stop offset="1" style="stop-color:rgb(0%,0%,0%);stop-opacity:1;"/>
</radialGradient>
<radialGradient id="radial12" gradientUnits="userSpaceOnUse" cx="15.41" cy="12.44" fx="15.41" fy="12.44" r="7.13" gradientTransform="matrix(1.041667,0,0,1.041667,0,0)">
<stop offset="0" style="stop-color:rgb(0%,0%,0%);stop-opacity:0;"/>
<stop offset="0.19" style="stop-color:rgb(1.960784%,1.176471%,0.392157%);stop-opacity:0.0509804;"/>
<stop offset="0.4" style="stop-color:rgb(7.058824%,4.705882%,1.568627%);stop-opacity:0.188235;"/>
<stop offset="0.62" style="stop-color:rgb(15.686275%,10.588235%,3.921569%);stop-opacity:0.419608;"/>
<stop offset="0.85" style="stop-color:rgb(28.235294%,18.823529%,6.666667%);stop-opacity:0.74902;"/>
<stop offset="1" style="stop-color:rgb(37.647059%,25.098039%,9.019608%);stop-opacity:1;"/>
<stop offset="1" style="stop-color:rgb(0%,0%,0%);stop-opacity:1;"/>
</radialGradient>
<radialGradient id="radial13" gradientUnits="userSpaceOnUse" cx="31.23" cy="10" fx="31.23" fy="10" r="7.16" gradientTransform="matrix(1.041667,0,0,1.041667,0,0)">
<stop offset="0" style="stop-color:rgb(0%,0%,0%);stop-opacity:0;"/>
<stop offset="0.19" style="stop-color:rgb(1.960784%,1.176471%,0.392157%);stop-opacity:0.0509804;"/>
<stop offset="0.4" style="stop-color:rgb(7.058824%,4.705882%,1.568627%);stop-opacity:0.188235;"/>
<stop offset="0.62" style="stop-color:rgb(15.686275%,10.588235%,3.921569%);stop-opacity:0.419608;"/>
<stop offset="0.85" style="stop-color:rgb(28.235294%,18.823529%,6.666667%);stop-opacity:0.74902;"/>
<stop offset="1" style="stop-color:rgb(37.647059%,25.098039%,9.019608%);stop-opacity:1;"/>
<stop offset="1" style="stop-color:rgb(0%,0%,0%);stop-opacity:1;"/>
</radialGradient>
<linearGradient id="linear6" gradientUnits="userSpaceOnUse" x1="26.79" y1="23.15" x2="15.21" y2="41.81" gradientTransform="matrix(1.041667,0,0,1.041667,0,0)">
<stop offset="0" style="stop-color:rgb(60.784314%,40%,21.176471%);stop-opacity:0;"/>
<stop offset="1" style="stop-color:rgb(60.784314%,40%,21.176471%);stop-opacity:1;"/>
</linearGradient>
<mask id="mask1">
  <g filter="url(#alpha)">
<rect x="0" y="0" width="50" height="50" style="fill:rgb(0%,0%,0%);fill-opacity:0.431373;stroke:none;"/>
  </g>
</mask>
<clipPath id="clip2">
  <rect width="50" height="50"/>
</clipPath>
<g id="surface28786" clip-path="url(#clip2)">
<path style=" stroke:none;fill-rule:evenodd;fill:rgb(60.784314%,40%,21.176471%);fill-opacity:1;" d="M 13.605469 35.894531 C 13.605469 35.894531 13.542969 35.730469 13.449219 35.425781 C 13.355469 35.125 13.199219 34.65625 12.730469 34.582031 L 12.292969 34.582031 C 12.058594 34.570312 11.855469 34.425781 11.769531 34.207031 C 11.738281 34.019531 11.738281 33.824219 11.769531 33.636719 C 11.789062 33.519531 11.730469 33.40625 11.625 33.355469 C 11.265625 33.21875 10.917969 33.054688 10.582031 32.863281 C 10.207031 32.625 9.878906 32.316406 9.613281 31.957031 C 9.527344 31.855469 9.445312 31.75 9.375 31.636719 C 9.292969 31.480469 9.292969 31.292969 9.375 31.136719 C 9.46875 30.988281 9.519531 30.820312 9.519531 30.644531 C 9.503906 30.292969 9.390625 29.953125 9.199219 29.65625 C 8.753906 29.117188 8.496094 28.449219 8.46875 27.75 C 8.496094 27.273438 8.695312 26.820312 9.03125 26.480469 C 9.269531 26.25 9.449219 26.1875 9.457031 26.207031 C 9.054688 26.628906 8.816406 27.179688 8.78125 27.761719 C 8.859375 28.386719 9.125 28.976562 9.542969 29.449219 C 9.785156 29.800781 9.925781 30.214844 9.949219 30.644531 C 9.949219 30.882812 9.886719 31.117188 9.769531 31.324219 C 9.769531 31.394531 9.769531 31.324219 9.769531 31.425781 L 9.925781 31.667969 C 10.160156 31.984375 10.449219 32.253906 10.78125 32.46875 C 11.117188 32.660156 11.464844 32.832031 11.824219 32.980469 C 12.039062 33.113281 12.164062 33.359375 12.144531 33.613281 C 12.128906 33.761719 12.128906 33.914062 12.144531 34.0625 C 12.144531 34.230469 12.488281 34.21875 12.800781 34.269531 C 13.097656 34.335938 13.34375 34.539062 13.46875 34.8125 C 13.554688 34.996094 13.613281 35.195312 13.636719 35.394531 C 13.65625 35.707031 13.636719 35.886719 13.605469 35.894531 Z M 13.605469 35.894531 "/>
</g>
</defs>
<g id="surface28778">
<path style=" stroke:none;fill-rule:evenodd;fill:url(#radial0);" d="M 46.09375 25.394531 C 46.089844 26.792969 45.976562 28.183594 45.761719 29.5625 C 45.324219 32.597656 44.183594 35.488281 42.4375 38.011719 C 38.542969 43.34375 32.761719 44.792969 26.71875 45.925781 C 23.542969 46.542969 18.511719 45.5625 15.625 44.199219 C 13.929688 43.441406 12.308594 42.519531 10.792969 41.449219 C 9.570312 40.5625 8.515625 39.476562 7.667969 38.230469 C 6.015625 35.671875 4.894531 32.8125 4.375 29.8125 C 4.078125 28.355469 3.914062 26.871094 3.886719 25.386719 C 3.886719 24.851562 3.886719 24.320312 3.886719 23.792969 C 4.167969 16.363281 7.894531 9.675781 15.261719 6.65625 C 20.03125 4.855469 25.207031 4.429688 30.207031 5.425781 C 37.957031 6.761719 44.1875 11.769531 45.636719 19.9375 C 45.949219 21.738281 46.101562 23.566406 46.09375 25.394531 Z M 46.09375 25.394531 "/>
<use xlink:href="#surface28783" mask="url(#mask0)"/>
<path style=" stroke:none;fill-rule:evenodd;fill:url(#radial1);" d="M 46.09375 25.394531 C 46.089844 26.792969 45.976562 28.183594 45.761719 29.5625 C 45.324219 32.597656 44.183594 35.488281 42.4375 38.011719 C 38.542969 43.34375 32.761719 44.792969 26.71875 45.925781 C 23.542969 46.542969 18.511719 45.5625 15.625 44.199219 C 13.929688 43.441406 12.308594 42.519531 10.792969 41.449219 C 9.570312 40.5625 8.515625 39.476562 7.667969 38.230469 C 6.015625 35.671875 4.894531 32.8125 4.375 29.8125 C 4.078125 28.355469 3.914062 26.871094 3.886719 25.386719 C 3.886719 24.851562 3.886719 24.320312 3.886719 23.792969 C 4.167969 16.363281 7.894531 9.675781 15.261719 6.65625 C 20.03125 4.855469 25.207031 4.429688 30.207031 5.425781 C 37.957031 6.761719 44.1875 11.769531 45.636719 19.9375 C 45.949219 21.738281 46.101562 23.566406 46.09375 25.394531 Z M 46.09375 25.394531 "/>
<path style=" stroke:none;fill-rule:evenodd;fill:url(#linear0);" d="M 26.125 40.550781 C 25.808594 40.554688 25.496094 40.523438 25.1875 40.457031 C 24.464844 40.332031 23.828125 39.902344 23.4375 39.28125 C 22.929688 37.738281 23.027344 36.058594 23.707031 34.582031 C 24.210938 33.785156 25.097656 33.3125 26.042969 33.332031 C 26.867188 33.316406 27.664062 33.617188 28.269531 34.175781 C 28.992188 35.0625 29.394531 36.160156 29.417969 37.300781 C 29.636719 38.179688 29.441406 39.109375 28.886719 39.824219 C 28.363281 40.257812 27.699219 40.492188 27.019531 40.480469 C 26.761719 40.519531 26.4375 40.550781 26.125 40.550781 Z M 26.125 40.550781 "/>
<path style=" stroke:none;fill-rule:evenodd;fill:url(#radial2);" d="M 23.875 39.03125 C 24.191406 39.53125 24.707031 39.871094 25.292969 39.96875 C 25.867188 40.054688 26.453125 40.054688 27.03125 39.96875 C 27.59375 39.984375 28.140625 39.800781 28.582031 39.457031 C 29.015625 38.855469 29.160156 38.09375 28.96875 37.375 C 28.941406 36.347656 28.574219 35.359375 27.925781 34.5625 C 26.96875 33.605469 24.855469 33.519531 24.105469 34.832031 C 23.527344 36.160156 23.445312 37.648438 23.875 39.03125 Z M 23.875 39.03125 "/>
<path style=" stroke:none;fill-rule:evenodd;fill:url(#linear1);" d="M 14.28125 30.550781 C 14.019531 30.546875 13.757812 30.527344 13.5 30.488281 C 12.628906 30.464844 11.78125 30.183594 11.0625 29.6875 C 10.203125 28.800781 9.761719 27.59375 9.84375 26.363281 C 9.875 25.8125 10.199219 25.316406 10.699219 25.074219 C 11.050781 24.921875 11.429688 24.851562 11.8125 24.863281 L 11.980469 24.863281 C 13.3125 24.886719 14.605469 25.3125 15.6875 26.09375 C 15.964844 26.296875 16.207031 26.546875 16.394531 26.832031 C 16.875 27.695312 16.800781 28.761719 16.207031 29.550781 C 15.988281 29.878906 15.691406 30.144531 15.34375 30.324219 C 15.019531 30.476562 14.664062 30.554688 14.300781 30.550781 Z M 14.28125 30.550781 "/>
<path style=" stroke:none;fill-rule:evenodd;fill:url(#radial3);" d="M 11.375 29.300781 C 12.019531 29.734375 12.777344 29.972656 13.550781 29.988281 C 14.078125 30.105469 14.628906 30.0625 15.136719 29.875 C 15.410156 29.730469 15.640625 29.519531 15.8125 29.261719 C 16.292969 28.628906 16.355469 27.777344 15.980469 27.082031 C 15.820312 26.847656 15.617188 26.644531 15.386719 26.480469 C 14.386719 25.761719 13.1875 25.367188 11.957031 25.355469 C 11.605469 25.324219 11.246094 25.378906 10.917969 25.511719 C 9.707031 26.09375 10.59375 28.65625 11.375 29.300781 Z M 11.375 29.300781 "/>
<path style=" stroke:none;fill-rule:evenodd;fill:url(#linear2);" d="M 37.78125 29.167969 C 36.671875 29.144531 35.722656 28.371094 35.480469 27.292969 C 35.25 26.480469 34.792969 24.488281 35.394531 23.5625 C 35.5625 23.328125 35.773438 23.128906 36.019531 22.980469 C 36.507812 22.65625 37.019531 22.371094 37.550781 22.136719 C 37.910156 21.957031 38.300781 21.859375 38.699219 21.84375 C 38.828125 21.828125 38.960938 21.828125 39.09375 21.84375 C 39.882812 22.105469 40.46875 22.769531 40.625 23.582031 C 40.964844 24.527344 41.03125 25.550781 40.8125 26.53125 C 40.574219 27.574219 39.875 28.453125 38.917969 28.925781 C 38.5625 29.089844 38.171875 29.171875 37.78125 29.167969 Z M 37.78125 29.167969 "/>
<path style=" stroke:none;fill-rule:evenodd;fill:url(#radial4);" d="M 35.824219 23.855469 C 35.953125 23.671875 36.121094 23.519531 36.3125 23.40625 C 36.769531 23.097656 37.253906 22.828125 37.761719 22.605469 C 38.132812 22.398438 38.558594 22.324219 38.980469 22.386719 C 39.5625 22.617188 39.996094 23.125 40.125 23.738281 C 40.433594 24.59375 40.496094 25.519531 40.300781 26.40625 C 40.097656 27.304688 39.507812 28.066406 38.6875 28.488281 C 38.164062 28.761719 37.539062 28.773438 37.007812 28.519531 C 36.472656 28.265625 36.089844 27.777344 35.96875 27.199219 C 35.738281 26.363281 35.355469 24.5625 35.824219 23.855469 Z M 35.824219 23.855469 "/>
<path style=" stroke:none;fill-rule:evenodd;fill:url(#linear3);" d="M 26.65625 26.625 C 25.789062 26.625 24.9375 26.429688 24.15625 26.050781 C 23.65625 25.84375 23.238281 25.480469 22.96875 25.011719 C 22.730469 24.496094 22.691406 23.910156 22.855469 23.363281 C 23.027344 22.265625 24.003906 21.476562 25.113281 21.53125 C 25.378906 21.53125 25.644531 21.558594 25.90625 21.605469 C 26.53125 21.71875 27.144531 21.871094 27.75 22.0625 C 28.269531 22.195312 28.746094 22.449219 29.144531 22.800781 C 29.847656 23.484375 29.976562 24.566406 29.457031 25.394531 C 28.921875 26.140625 28.0625 26.585938 27.144531 26.605469 Z M 26.65625 26.625 "/>
<path style=" stroke:none;fill-rule:evenodd;fill:url(#radial5);" d="M 23.34375 23.480469 C 23.214844 23.90625 23.238281 24.363281 23.417969 24.769531 C 23.640625 25.140625 23.976562 25.429688 24.375 25.59375 C 25.226562 26.007812 26.171875 26.1875 27.113281 26.105469 C 27.875 26.09375 28.589844 25.730469 29.050781 25.125 C 29.429688 24.488281 29.332031 23.675781 28.8125 23.144531 C 28.46875 22.847656 28.058594 22.640625 27.613281 22.53125 C 27.027344 22.347656 26.429688 22.203125 25.824219 22.09375 C 24.574219 21.875 23.667969 22.15625 23.34375 23.480469 Z M 23.34375 23.480469 "/>
<path style=" stroke:none;fill-rule:evenodd;fill:url(#linear4);" d="M 17.0625 17.707031 C 16.355469 17.710938 15.648438 17.597656 14.980469 17.363281 C 14.785156 17.308594 14.609375 17.207031 14.46875 17.0625 C 13.769531 16.300781 14.324219 14.6875 14.707031 14.167969 C 15.347656 13.453125 16.261719 13.050781 17.21875 13.0625 C 18.253906 13.066406 19.230469 13.53125 19.886719 14.332031 C 20.40625 14.894531 20.558594 15.703125 20.28125 16.417969 C 19.984375 16.957031 19.46875 17.335938 18.863281 17.457031 C 18.265625 17.644531 17.644531 17.738281 17.019531 17.738281 Z M 17.0625 17.707031 "/>
<path style=" stroke:none;fill-rule:evenodd;fill:url(#radial6);" d="M 14.875 16.667969 C 14.960938 16.746094 15.0625 16.804688 15.175781 16.832031 C 16.335938 17.230469 17.589844 17.253906 18.761719 16.894531 C 19.222656 16.800781 19.621094 16.515625 19.863281 16.113281 C 20.042969 15.589844 19.914062 15.007812 19.53125 14.605469 C 18.964844 13.9375 18.132812 13.558594 17.261719 13.5625 C 16.472656 13.558594 15.71875 13.882812 15.175781 14.457031 C 14.792969 14.9375 14.449219 16.25 14.875 16.667969 Z M 14.875 16.667969 "/>
<path style=" stroke:none;fill-rule:evenodd;fill:url(#linear5);" d="M 33.894531 14.800781 L 33.457031 14.800781 C 32.535156 14.8125 31.625 14.589844 30.8125 14.15625 C 29.394531 13.28125 29.5 12.25 29.613281 11.855469 C 30.039062 10.765625 31.125 10.082031 32.292969 10.167969 C 32.496094 10.167969 32.703125 10.1875 32.90625 10.230469 C 33.933594 10.449219 34.851562 11.027344 35.5 11.855469 C 35.914062 12.277344 36.113281 12.871094 36.042969 13.457031 C 35.902344 14.042969 35.460938 14.507812 34.886719 14.675781 C 34.566406 14.773438 34.230469 14.816406 33.894531 14.800781 Z M 33.894531 14.800781 "/>
<path style=" stroke:none;fill-rule:evenodd;fill:url(#radial7);" d="M 31.074219 13.707031 C 31.816406 14.097656 32.640625 14.292969 33.480469 14.28125 C 33.886719 14.328125 34.300781 14.296875 34.699219 14.1875 C 35.101562 14.074219 35.410156 13.757812 35.519531 13.355469 C 35.554688 12.910156 35.394531 12.472656 35.082031 12.15625 C 34.507812 11.421875 33.695312 10.90625 32.78125 10.707031 C 30.75 10.324219 28.800781 12.3125 31.074219 13.707031 Z M 31.074219 13.707031 "/>
<path style=" stroke:none;fill-rule:evenodd;fill:url(#radial8);" d="M 23.875 39.03125 C 24.191406 39.53125 24.707031 39.871094 25.292969 39.96875 C 25.867188 40.054688 26.453125 40.054688 27.03125 39.96875 C 27.59375 39.984375 28.140625 39.800781 28.582031 39.457031 C 29.015625 38.855469 29.160156 38.09375 28.96875 37.375 C 28.941406 36.347656 28.574219 35.359375 27.925781 34.5625 C 26.96875 33.605469 24.855469 33.519531 24.105469 34.832031 C 23.527344 36.160156 23.445312 37.648438 23.875 39.03125 Z M 23.875 39.03125 "/>
<path style=" stroke:none;fill-rule:evenodd;fill:url(#radial9);" d="M 11.375 29.300781 C 12.019531 29.734375 12.777344 29.972656 13.550781 29.988281 C 14.078125 30.105469 14.628906 30.0625 15.136719 29.875 C 15.410156 29.730469 15.640625 29.519531 15.8125 29.261719 C 16.292969 28.628906 16.355469 27.777344 15.980469 27.082031 C 15.820312 26.847656 15.617188 26.644531 15.386719 26.480469 C 14.386719 25.761719 13.1875 25.367188 11.957031 25.355469 C 11.605469 25.324219 11.246094 25.378906 10.917969 25.511719 C 9.707031 26.09375 10.59375 28.65625 11.375 29.300781 Z M 11.375 29.300781 "/>
<path style=" stroke:none;fill-rule:evenodd;fill:url(#radial10);" d="M 35.824219 23.855469 C 35.953125 23.671875 36.121094 23.519531 36.3125 23.40625 C 36.769531 23.097656 37.253906 22.828125 37.761719 22.605469 C 38.132812 22.398438 38.558594 22.324219 38.980469 22.386719 C 39.5625 22.617188 39.996094 23.125 40.125 23.738281 C 40.433594 24.59375 40.496094 25.519531 40.300781 26.40625 C 40.097656 27.304688 39.507812 28.066406 38.6875 28.488281 C 38.164062 28.761719 37.539062 28.773438 37.007812 28.519531 C 36.472656 28.265625 36.089844 27.777344 35.96875 27.199219 C 35.738281 26.363281 35.355469 24.5625 35.824219 23.855469 Z M 35.824219 23.855469 "/>
<path style=" stroke:none;fill-rule:evenodd;fill:url(#radial11);" d="M 23.34375 23.480469 C 23.214844 23.90625 23.238281 24.363281 23.417969 24.769531 C 23.640625 25.140625 23.976562 25.429688 24.375 25.59375 C 25.226562 26.007812 26.171875 26.1875 27.113281 26.105469 C 27.875 26.09375 28.589844 25.730469 29.050781 25.125 C 29.429688 24.488281 29.332031 23.675781 28.8125 23.144531 C 28.46875 22.847656 28.058594 22.640625 27.613281 22.53125 C 27.027344 22.347656 26.429688 22.203125 25.824219 22.09375 C 24.574219 21.875 23.667969 22.15625 23.34375 23.480469 Z M 23.34375 23.480469 "/>
<path style=" stroke:none;fill-rule:evenodd;fill:url(#radial12);" d="M 14.875 16.667969 C 14.960938 16.746094 15.0625 16.804688 15.175781 16.832031 C 16.335938 17.230469 17.589844 17.253906 18.761719 16.894531 C 19.222656 16.800781 19.621094 16.515625 19.863281 16.113281 C 20.042969 15.589844 19.914062 15.007812 19.53125 14.605469 C 18.964844 13.9375 18.132812 13.558594 17.261719 13.5625 C 16.472656 13.558594 15.71875 13.882812 15.175781 14.457031 C 14.792969 14.9375 14.449219 16.25 14.875 16.667969 Z M 14.875 16.667969 "/>
<path style=" stroke:none;fill-rule:evenodd;fill:url(#radial13);" d="M 31.074219 13.707031 C 31.816406 14.097656 32.640625 14.292969 33.480469 14.28125 C 33.886719 14.328125 34.300781 14.296875 34.699219 14.1875 C 35.101562 14.074219 35.410156 13.757812 35.519531 13.355469 C 35.554688 12.910156 35.394531 12.472656 35.082031 12.15625 C 34.507812 11.421875 33.695312 10.90625 32.78125 10.707031 C 30.75 10.324219 28.800781 12.3125 31.074219 13.707031 Z M 31.074219 13.707031 "/>
<path style=" stroke:none;fill-rule:evenodd;fill:url(#linear6);" d="M 45.761719 29.542969 C 45.324219 32.578125 44.183594 35.46875 42.4375 37.988281 C 38.542969 43.34375 32.761719 44.792969 26.71875 45.925781 C 23.542969 46.542969 18.511719 45.5625 15.625 44.199219 C 13.929688 43.441406 12.308594 42.519531 10.792969 41.449219 C 9.570312 40.5625 8.515625 39.476562 7.667969 38.230469 C 6.015625 35.671875 4.894531 32.8125 4.375 29.8125 C 4.078125 28.355469 3.914062 26.871094 3.886719 25.386719 C 4.886719 25.632812 5.644531 26.453125 5.8125 27.46875 C 5.980469 28.21875 5.957031 29 6.050781 29.761719 C 6.269531 31.089844 6.855469 32.328125 7.75 33.332031 C 8.335938 33.875 8.84375 34.496094 9.261719 35.175781 C 9.644531 35.988281 9.667969 37.042969 10.394531 37.550781 C 11.125 38.0625 11.894531 37.8125 12.613281 38.0625 C 13.332031 38.390625 13.945312 38.917969 14.375 39.582031 C 15.5 40.9375 17.207031 42.261719 18.886719 41.667969 C 19.355469 41.402344 19.871094 41.230469 20.40625 41.15625 C 20.925781 41.257812 21.40625 41.507812 21.792969 41.875 C 23.839844 43.308594 26.519531 43.464844 28.71875 42.28125 C 29.527344 41.644531 30.476562 41.21875 31.488281 41.03125 C 31.96875 41.03125 32.449219 41.167969 32.9375 41.175781 C 33.402344 41.242188 33.863281 41.023438 34.113281 40.625 C 34.15625 40.355469 34.15625 40.082031 34.113281 39.8125 C 34.113281 38.769531 35.40625 37.894531 36.199219 38.519531 C 36.480469 38.738281 36.644531 39.082031 36.957031 39.238281 C 37.6875 39.605469 38.425781 38.707031 38.59375 37.90625 C 38.761719 37.105469 38.761719 36.15625 39.425781 35.6875 C 40.09375 35.21875 41.074219 35.519531 41.8125 35.15625 C 42.550781 34.792969 42.855469 33.542969 43.199219 32.59375 C 43.636719 31.289062 44.550781 30.199219 45.761719 29.542969 Z M 45.761719 29.542969 "/>
<path style=" stroke:none;fill-rule:evenodd;fill:rgb(96.862745%,85.490196%,56.862745%);fill-opacity:1;" d="M 30.824219 19.386719 C 30.375 18.820312 29.609375 18.617188 28.9375 18.886719 C 28.46875 18.792969 28.300781 18.355469 28.050781 18.15625 C 27.753906 17.921875 27.386719 17.792969 27.011719 17.78125 C 26.082031 17.796875 25.164062 17.964844 24.292969 18.269531 C 23.359375 18.597656 22.367188 18.703125 21.386719 18.582031 C 20.917969 18.5 20.53125 18.292969 20.199219 18.207031 C 19.851562 18.148438 19.5 18.148438 19.15625 18.207031 C 18.613281 18.246094 18.070312 18.152344 17.574219 17.9375 C 17.230469 17.78125 17.0625 17.644531 17.082031 17.613281 C 17.753906 17.84375 18.460938 17.9375 19.167969 17.886719 C 19.539062 17.796875 19.921875 17.78125 20.300781 17.832031 C 20.71875 17.917969 21.082031 18.105469 21.488281 18.167969 C 22.40625 18.253906 23.328125 18.136719 24.199219 17.832031 C 25.125 17.511719 26.101562 17.355469 27.082031 17.375 C 27.542969 17.402344 27.976562 17.582031 28.324219 17.886719 C 28.636719 18.199219 28.78125 18.542969 29.019531 18.574219 C 29.261719 18.605469 29.625 18.457031 29.894531 18.574219 C 30.136719 18.621094 30.359375 18.734375 30.542969 18.894531 C 30.8125 19.15625 30.84375 19.386719 30.824219 19.386719 Z M 30.824219 19.386719 "/>
<path style=" stroke:none;fill-rule:evenodd;fill:rgb(96.862745%,85.490196%,56.862745%);fill-opacity:1;" d="M 35.949219 18.175781 C 35.949219 18.113281 36.199219 17.917969 36.574219 17.542969 C 36.796875 17.339844 36.984375 17.105469 37.136719 16.84375 C 37.203125 16.714844 37.226562 16.570312 37.199219 16.425781 C 37.113281 16.207031 37.074219 15.972656 37.082031 15.738281 C 37.121094 15.582031 37.222656 15.445312 37.363281 15.363281 C 37.433594 15.332031 37.5 15.289062 37.5625 15.238281 C 37.5625 15.238281 37.5625 15 37.5625 14.863281 C 37.519531 14.578125 37.398438 14.3125 37.207031 14.09375 C 36.886719 13.699219 36.53125 13.625 36.550781 13.550781 C 36.574219 13.480469 36.96875 13.457031 37.4375 13.875 C 37.710938 14.117188 37.898438 14.445312 37.96875 14.800781 C 38.042969 15.046875 38.007812 15.3125 37.875 15.53125 C 37.625 15.761719 37.480469 15.78125 37.488281 15.855469 C 37.503906 16.027344 37.539062 16.199219 37.59375 16.363281 C 37.628906 16.601562 37.582031 16.84375 37.457031 17.050781 C 37.273438 17.347656 37.027344 17.601562 36.738281 17.800781 C 36.3125 18.125 35.96875 18.230469 35.949219 18.175781 Z M 35.949219 18.175781 "/>
<use xlink:href="#surface28786" mask="url(#mask1)"/>
</g>
</svg>
