<?xml version="1.0" encoding="UTF-8"?>
<svg xmlns="http://www.w3.org/2000/svg" xmlns:xlink="http://www.w3.org/1999/xlink" width="50pt" height="50pt" viewBox="0 0 50 50" version="1.1">
<g id="surface63844">
<path style=" stroke:none;fill-rule:nonzero;fill:rgb(93.333333%,32.941176%,56.470588%);fill-opacity:1;" d="M 41 15.5 L 41 17 L 9 17 L 9 15.5 C 9 11.910156 11.910156 9 15.5 9 L 34.5 9 C 38.089844 9 41 11.910156 41 15.5 Z M 41 15.5 "/>
<path style=" stroke:none;fill-rule:nonzero;fill:rgb(93.72549%,38.823529%,53.333333%);fill-opacity:1;" d="M 9 17 L 41 17 L 41 25 L 9 25 Z M 9 17 "/>
<path style=" stroke:none;fill-rule:nonzero;fill:rgb(90.980392%,33.72549%,32.941176%);fill-opacity:1;" d="M 41 33 L 41 34.5 C 41 38.089844 38.089844 41 34.5 41 L 15.5 41 C 11.910156 41 9 38.089844 9 34.5 L 9 33 Z M 41 33 "/>
<path style=" stroke:none;fill-rule:nonzero;fill:rgb(94.117647%,35.686275%,42.352941%);fill-opacity:1;" d="M 9 25 L 41 25 L 41 33 L 9 33 Z M 9 25 "/>
<path style=" stroke:none;fill-rule:nonzero;fill:rgb(100%,100%,100%);fill-opacity:1;" d="M 20.523438 29.75 C 20.511719 29.75 20.5 29.75 20.488281 29.75 C 20.28125 29.726562 20.128906 29.546875 20.148438 29.339844 C 20.175781 29.070312 20.1875 28.839844 20.1875 28.625 C 20.1875 28.007812 20.101562 27.296875 20.019531 26.613281 C 19.949219 26.027344 19.875 25.417969 19.875 25 C 19.875 22.175781 22.175781 19.875 25 19.875 C 26.574219 19.875 28.042969 20.585938 29.023438 21.828125 C 29.152344 21.992188 29.125 22.226562 28.960938 22.355469 C 28.800781 22.484375 28.5625 22.457031 28.433594 22.292969 C 27.597656 21.234375 26.34375 20.625 25 20.625 C 22.585938 20.625 20.625 22.585938 20.625 25 C 20.625 25.375 20.699219 25.984375 20.761719 26.519531 C 20.847656 27.230469 20.9375 27.960938 20.9375 28.625 C 20.9375 28.863281 20.925781 29.117188 20.894531 29.410156 C 20.878906 29.605469 20.714844 29.75 20.523438 29.75 Z M 20.523438 29.75 "/>
<path style=" stroke:none;fill-rule:nonzero;fill:rgb(100%,100%,100%);fill-opacity:1;" d="M 19.976562 33.195312 L 19.273438 32.929688 C 19.273438 32.929688 19.449219 32.472656 19.503906 32.320312 C 19.535156 32.226562 19.691406 31.746094 19.84375 31.101562 C 19.890625 30.898438 20.09375 30.773438 20.296875 30.824219 C 20.496094 30.871094 20.621094 31.074219 20.574219 31.273438 C 20.414062 31.9375 20.253906 32.445312 20.210938 32.570312 C 20.15625 32.726562 19.976562 33.195312 19.976562 33.195312 Z M 19.976562 33.195312 "/>
<path style=" stroke:none;fill-rule:nonzero;fill:rgb(100%,100%,100%);fill-opacity:1;" d="M 34.621094 25.480469 C 34.617188 25.480469 34.617188 25.480469 34.613281 25.480469 C 34.40625 25.480469 34.242188 25.328125 34.242188 25.121094 C 34.242188 25.09375 34.246094 25.066406 34.246094 25.039062 C 34.25 20.539062 31.066406 16.714844 26.683594 15.910156 C 26.476562 15.871094 26.34375 15.675781 26.382812 15.472656 C 26.417969 15.269531 26.613281 15.132812 26.816406 15.171875 C 31.558594 16.046875 35 20.179688 35 25 C 35 25.03125 34.996094 25.0625 34.996094 25.09375 C 34.992188 25.296875 34.824219 25.480469 34.621094 25.480469 Z M 34.621094 25.480469 "/>
<path style=" stroke:none;fill-rule:nonzero;fill:rgb(100%,100%,100%);fill-opacity:1;" d="M 17.125 31 C 17.089844 31 17.054688 30.996094 17.015625 30.984375 C 16.820312 30.925781 16.707031 30.714844 16.765625 30.515625 C 16.765625 30.511719 16.9375 29.914062 16.9375 28.75 C 16.9375 28.300781 16.875 27.796875 16.804688 27.265625 C 16.722656 26.597656 16.625 25.84375 16.625 25 C 16.625 22.296875 17.945312 19.746094 20.15625 18.175781 C 20.328125 18.054688 20.558594 18.09375 20.679688 18.261719 C 20.800781 18.429688 20.761719 18.664062 20.59375 18.785156 C 18.578125 20.21875 17.375 22.539062 17.375 25 C 17.375 25.796875 17.46875 26.527344 17.550781 27.171875 C 17.621094 27.726562 17.6875 28.253906 17.6875 28.75 C 17.6875 30.039062 17.492188 30.703125 17.484375 30.734375 C 17.433594 30.894531 17.285156 31 17.125 31 Z M 17.125 31 "/>
<path style=" stroke:none;fill-rule:nonzero;fill:rgb(100%,100%,100%);fill-opacity:1;" d="M 31.5625 32.625 C 31.550781 32.625 31.535156 32.625 31.523438 32.621094 C 31.316406 32.601562 31.167969 32.414062 31.191406 32.210938 C 31.191406 32.191406 31.375 30.46875 31.375 29.5 C 31.375 26.308594 31.109375 24.953125 30.910156 23.964844 L 30.894531 23.871094 C 30.585938 22.246094 29.59375 20.800781 28.175781 19.914062 C 28 19.804688 27.945312 19.574219 28.058594 19.398438 C 28.167969 19.222656 28.398438 19.171875 28.574219 19.28125 C 30.167969 20.277344 31.285156 21.898438 31.632812 23.734375 L 31.644531 23.804688 C 31.847656 24.839844 32.125 26.234375 32.125 29.5 C 32.125 30.507812 31.941406 32.21875 31.933594 32.289062 C 31.914062 32.484375 31.753906 32.625 31.5625 32.625 Z M 31.5625 32.625 "/>
<path style=" stroke:none;fill-rule:nonzero;fill:rgb(100%,100%,100%);fill-opacity:1;" d="M 18.3125 32.3125 C 18.273438 32.3125 18.234375 32.304688 18.195312 32.292969 C 18 32.226562 17.890625 32.015625 17.957031 31.820312 C 17.960938 31.800781 18.5625 29.964844 18.5625 28.625 C 18.5625 28.109375 18.484375 27.445312 18.40625 26.804688 C 18.324219 26.140625 18.25 25.515625 18.25 25 C 18.25 21.277344 21.277344 18.25 25 18.25 C 25.578125 18.25 26.15625 18.324219 26.71875 18.472656 C 26.921875 18.527344 27.039062 18.730469 26.988281 18.933594 C 26.933594 19.132812 26.730469 19.253906 26.527344 19.199219 C 26.027344 19.066406 25.511719 19 25 19 C 21.691406 19 19 21.691406 19 25 C 19 25.46875 19.074219 26.074219 19.148438 26.714844 C 19.230469 27.378906 19.3125 28.0625 19.3125 28.625 C 19.3125 30.085938 18.695312 31.976562 18.667969 32.054688 C 18.617188 32.210938 18.46875 32.3125 18.3125 32.3125 Z M 18.3125 32.3125 "/>
<path style=" stroke:none;fill-rule:nonzero;fill:rgb(100%,100%,100%);fill-opacity:1;" d="M 27.5625 34.8125 C 27.511719 34.8125 27.464844 34.800781 27.414062 34.78125 C 27.222656 34.699219 27.136719 34.480469 27.21875 34.289062 C 27.394531 33.875 27.632812 33.097656 27.636719 33.089844 C 27.652344 33.027344 28.125 31.222656 28.125 29.5 C 28.125 26.625 27.902344 25.5 27.722656 24.597656 L 27.703125 24.480469 C 27.457031 23.1875 26.320312 22.25 25 22.25 C 24.683594 22.25 24.371094 22.304688 24.066406 22.417969 C 23.871094 22.488281 23.65625 22.386719 23.585938 22.191406 C 23.511719 22 23.613281 21.785156 23.808594 21.710938 C 24.199219 21.570312 24.597656 21.5 25 21.5 C 26.679688 21.5 28.128906 22.695312 28.441406 24.339844 L 28.460938 24.453125 C 28.644531 25.386719 28.875 26.554688 28.875 29.5 C 28.875 31.320312 28.378906 33.214844 28.355469 33.292969 C 28.34375 33.339844 28.101562 34.132812 27.90625 34.585938 C 27.847656 34.726562 27.707031 34.8125 27.5625 34.8125 Z M 27.5625 34.8125 "/>
<path style=" stroke:none;fill-rule:nonzero;fill:rgb(100%,100%,100%);fill-opacity:1;" d="M 21.0625 34.125 C 21.007812 34.125 20.949219 34.113281 20.894531 34.085938 C 20.710938 33.992188 20.632812 33.765625 20.726562 33.582031 C 20.730469 33.578125 20.90625 33.222656 21.035156 32.859375 C 21.066406 32.769531 21.8125 30.558594 21.8125 28.625 C 21.8125 27.910156 21.71875 27.148438 21.632812 26.414062 C 21.570312 25.902344 21.5 25.320312 21.5 25 C 21.5 24.207031 21.761719 23.457031 22.257812 22.828125 C 22.386719 22.667969 22.625 22.640625 22.785156 22.769531 C 22.949219 22.898438 22.976562 23.132812 22.847656 23.296875 C 22.457031 23.789062 22.25 24.378906 22.25 25 C 22.25 25.273438 22.320312 25.855469 22.375 26.324219 C 22.46875 27.082031 22.5625 27.867188 22.5625 28.625 C 22.5625 30.683594 21.777344 33.007812 21.746094 33.105469 C 21.597656 33.519531 21.40625 33.902344 21.398438 33.917969 C 21.332031 34.050781 21.199219 34.125 21.0625 34.125 Z M 21.0625 34.125 "/>
<path style=" stroke:none;fill-rule:nonzero;fill:rgb(100%,100%,100%);fill-opacity:1;" d="M 29.5625 34 C 29.53125 34 29.496094 33.996094 29.464844 33.988281 C 29.265625 33.933594 29.148438 33.726562 29.199219 33.527344 C 29.207031 33.507812 29.75 31.484375 29.75 29.5 C 29.75 26.460938 29.511719 25.253906 29.320312 24.28125 L 29.300781 24.179688 C 29.277344 24.066406 29.25 23.957031 29.222656 23.847656 C 29.167969 23.648438 29.285156 23.441406 29.484375 23.386719 C 29.683594 23.332031 29.890625 23.453125 29.945312 23.652344 C 29.980469 23.777344 30.011719 23.90625 30.035156 24.039062 L 30.054688 24.136719 C 30.253906 25.136719 30.5 26.386719 30.5 29.5 C 30.5 31.589844 29.949219 33.636719 29.925781 33.722656 C 29.878906 33.890625 29.726562 34 29.5625 34 Z M 29.5625 34 "/>
<path style=" stroke:none;fill-rule:nonzero;fill:rgb(100%,100%,100%);fill-opacity:1;" d="M 25.8125 35 C 25.761719 35 25.714844 34.988281 25.664062 34.96875 C 25.472656 34.886719 25.386719 34.667969 25.46875 34.476562 C 25.625 34.109375 25.910156 33.179688 26.03125 32.785156 L 26.070312 32.644531 C 26.097656 32.546875 26.359375 31.492188 26.460938 30.34375 C 26.476562 30.136719 26.664062 29.984375 26.867188 30 C 27.074219 30.019531 27.226562 30.199219 27.207031 30.40625 C 27.105469 31.589844 26.84375 32.648438 26.792969 32.847656 L 26.746094 33.003906 C 26.613281 33.445312 26.328125 34.367188 26.15625 34.773438 C 26.097656 34.914062 25.957031 35 25.8125 35 Z M 25.8125 35 "/>
<path style=" stroke:none;fill-rule:nonzero;fill:rgb(100%,100%,100%);fill-opacity:1;" d="M 22.59375 34.6875 C 22.539062 34.6875 22.488281 34.675781 22.433594 34.652344 C 22.246094 34.5625 22.167969 34.339844 22.253906 34.152344 C 22.324219 34.007812 22.457031 33.714844 22.570312 33.398438 C 22.605469 33.296875 23.4375 30.867188 23.4375 28.625 C 23.4375 27.816406 23.339844 26.996094 23.242188 26.207031 C 23.183594 25.699219 23.125 25.203125 23.125 25 C 23.125 23.964844 23.964844 23.125 25 23.125 C 25.902344 23.125 26.675781 23.761719 26.84375 24.640625 L 26.867188 24.765625 C 27.011719 25.496094 27.191406 26.40625 27.238281 28.429688 C 27.242188 28.636719 27.078125 28.808594 26.871094 28.8125 C 26.671875 28.824219 26.492188 28.652344 26.488281 28.445312 C 26.441406 26.492188 26.269531 25.613281 26.128906 24.910156 L 26.105469 24.78125 C 26.007812 24.257812 25.539062 23.875 25 23.875 C 24.378906 23.875 23.875 24.378906 23.875 25 C 23.875 25.183594 23.960938 25.886719 23.988281 26.117188 C 24.085938 26.929688 24.1875 27.769531 24.1875 28.625 C 24.1875 30.992188 23.316406 33.539062 23.277344 33.644531 C 23.152344 33.996094 23.007812 34.3125 22.933594 34.472656 C 22.871094 34.609375 22.734375 34.6875 22.59375 34.6875 Z M 22.59375 34.6875 "/>
<path style=" stroke:none;fill-rule:nonzero;fill:rgb(100%,100%,100%);fill-opacity:1;" d="M 25.015625 32.3125 C 24.988281 32.3125 24.960938 32.308594 24.9375 32.304688 C 24.734375 32.261719 24.605469 32.0625 24.648438 31.859375 C 24.734375 31.453125 24.9375 30.410156 24.9375 29.5 C 24.9375 26.300781 24.699219 25.21875 24.699219 25.210938 C 24.652344 25.007812 24.777344 24.804688 24.976562 24.757812 C 25.179688 24.710938 25.378906 24.835938 25.429688 25.039062 C 25.4375 25.082031 25.6875 26.179688 25.6875 29.5 C 25.6875 30.480469 25.472656 31.585938 25.382812 32.015625 C 25.34375 32.191406 25.1875 32.3125 25.015625 32.3125 Z M 25.015625 32.3125 "/>
<path style=" stroke:none;fill-rule:nonzero;fill:rgb(100%,100%,100%);fill-opacity:1;" d="M 24.125 35 C 24.074219 35 24.027344 34.992188 23.976562 34.96875 C 23.789062 34.886719 23.699219 34.667969 23.78125 34.476562 C 23.820312 34.386719 23.96875 33.992188 24.140625 33.5 C 24.210938 33.304688 24.425781 33.203125 24.621094 33.269531 C 24.816406 33.339844 24.917969 33.554688 24.847656 33.75 C 24.675781 34.238281 24.519531 34.652344 24.46875 34.773438 C 24.410156 34.914062 24.269531 35 24.125 35 Z M 24.125 35 "/>
<path style=" stroke:none;fill-rule:nonzero;fill:rgb(100%,100%,100%);fill-opacity:1;" d="M 33.4375 30.125 C 33.230469 30.125 33.0625 29.957031 33.0625 29.75 C 33.0625 29.253906 33.050781 28.78125 33.03125 28.328125 C 33.023438 28.121094 33.183594 27.945312 33.390625 27.9375 C 33.589844 27.925781 33.773438 28.089844 33.78125 28.296875 C 33.800781 28.757812 33.8125 29.242188 33.8125 29.75 C 33.8125 29.957031 33.644531 30.125 33.4375 30.125 Z M 33.4375 30.125 "/>
<path style=" stroke:none;fill-rule:nonzero;fill:rgb(100%,100%,100%);fill-opacity:1;" d="M 33.28125 26.8125 C 33.089844 26.8125 32.925781 26.667969 32.90625 26.472656 C 32.808594 25.453125 32.675781 24.492188 32.5 23.625 L 32.492188 23.570312 C 31.808594 19.980469 28.660156 17.375 25 17.375 C 24.046875 17.375 23.101562 17.554688 22.199219 17.914062 C 22.007812 17.988281 21.789062 17.894531 21.714844 17.703125 C 21.636719 17.507812 21.730469 17.292969 21.925781 17.214844 C 22.914062 16.824219 23.949219 16.625 25 16.625 C 29.019531 16.625 32.480469 19.488281 33.226562 23.429688 L 33.238281 23.480469 C 33.414062 24.371094 33.554688 25.355469 33.652344 26.402344 C 33.671875 26.609375 33.523438 26.789062 33.316406 26.808594 C 33.304688 26.8125 33.292969 26.8125 33.28125 26.8125 Z M 33.28125 26.8125 "/>
<path style=" stroke:none;fill-rule:nonzero;fill:rgb(100%,100%,100%);fill-opacity:1;" d="M 16.402344 21.0625 C 16.347656 21.0625 16.289062 21.050781 16.234375 21.023438 C 16.050781 20.929688 15.976562 20.703125 16.070312 20.519531 C 17.757812 17.167969 21.128906 15.054688 24.871094 15.007812 C 25.085938 14.996094 25.246094 15.171875 25.25 15.375 C 25.253906 15.585938 25.085938 15.753906 24.878906 15.757812 C 21.417969 15.800781 18.300781 17.753906 16.738281 20.855469 C 16.671875 20.988281 16.539062 21.0625 16.402344 21.0625 Z M 16.402344 21.0625 "/>
<path style=" stroke:none;fill-rule:nonzero;fill:rgb(100%,100%,100%);fill-opacity:1;" d="M 15.9375 28.6875 C 15.800781 28.6875 15.671875 28.613281 15.605469 28.488281 C 15.582031 28.441406 15 27.316406 15 25 C 15 24.121094 15.125 23.222656 15.367188 22.335938 C 15.425781 22.136719 15.628906 22.023438 15.828125 22.074219 C 16.03125 22.132812 16.148438 22.335938 16.089844 22.539062 C 15.863281 23.359375 15.75 24.1875 15.75 25 C 15.75 27.109375 16.265625 28.128906 16.269531 28.136719 C 16.363281 28.320312 16.292969 28.546875 16.109375 28.644531 C 16.054688 28.671875 15.996094 28.6875 15.9375 28.6875 Z M 15.9375 28.6875 "/>
<path style=" stroke:none;fill-rule:nonzero;fill:rgb(12.156863%,12.941176%,16.862745%);fill-opacity:1;" d="M 34.5 41.5 L 15.5 41.5 C 11.640625 41.5 8.5 38.359375 8.5 34.5 L 8.5 15.5 C 8.5 11.640625 11.640625 8.5 15.5 8.5 L 34.5 8.5 C 38.359375 8.5 41.5 11.640625 41.5 15.5 L 41.5 34.5 C 41.5 38.359375 38.359375 41.5 34.5 41.5 Z M 15.5 9.5 C 12.191406 9.5 9.5 12.191406 9.5 15.5 L 9.5 34.5 C 9.5 37.808594 12.191406 40.5 15.5 40.5 L 34.5 40.5 C 37.808594 40.5 40.5 37.808594 40.5 34.5 L 40.5 15.5 C 40.5 12.191406 37.808594 9.5 34.5 9.5 Z M 15.5 9.5 "/>
<path style=" stroke:none;fill-rule:nonzero;fill:rgb(12.156863%,12.941176%,16.862745%);fill-opacity:1;" d="M 34.5 41.5 L 15.5 41.5 C 11.640625 41.5 8.5 38.359375 8.5 34.5 L 8.5 15.5 C 8.5 11.640625 11.640625 8.5 15.5 8.5 L 34.5 8.5 C 38.359375 8.5 41.5 11.640625 41.5 15.5 L 41.5 34.5 C 41.5 38.359375 38.359375 41.5 34.5 41.5 Z M 15.5 9.5 C 12.191406 9.5 9.5 12.191406 9.5 15.5 L 9.5 34.5 C 9.5 37.808594 12.191406 40.5 15.5 40.5 L 34.5 40.5 C 37.808594 40.5 40.5 37.808594 40.5 34.5 L 40.5 15.5 C 40.5 12.191406 37.808594 9.5 34.5 9.5 Z M 15.5 9.5 "/>
<path style=" stroke:none;fill-rule:nonzero;fill:rgb(12.156863%,12.941176%,16.862745%);fill-opacity:1;" d="M 32.949219 38.5 L 17.050781 38.5 C 13.988281 38.5 11.5 36.011719 11.5 32.949219 L 11.5 17.050781 C 11.5 13.988281 13.988281 11.5 17.050781 11.5 L 30.25 11.5 C 30.386719 11.5 30.5 11.613281 30.5 11.75 C 30.5 11.886719 30.386719 12 30.25 12 L 17.050781 12 C 14.265625 12 12 14.265625 12 17.050781 L 12 32.949219 C 12 35.734375 14.265625 38 17.050781 38 L 32.949219 38 C 35.734375 38 38 35.734375 38 32.949219 L 38 25.75 C 38 25.613281 38.113281 25.5 38.25 25.5 C 38.386719 25.5 38.5 25.613281 38.5 25.75 L 38.5 32.949219 C 38.5 36.011719 36.011719 38.5 32.949219 38.5 Z M 32.949219 38.5 "/>
<path style=" stroke:none;fill-rule:nonzero;fill:rgb(12.156863%,12.941176%,16.862745%);fill-opacity:1;" d="M 38.25 21 C 38.113281 21 38 20.886719 38 20.75 L 38 19.75 C 38 19.613281 38.113281 19.5 38.25 19.5 C 38.386719 19.5 38.5 19.613281 38.5 19.75 L 38.5 20.75 C 38.5 20.886719 38.386719 21 38.25 21 Z M 38.25 21 "/>
<path style=" stroke:none;fill-rule:nonzero;fill:rgb(12.156863%,12.941176%,16.862745%);fill-opacity:1;" d="M 38.25 24.5 C 38.113281 24.5 38 24.386719 38 24.25 L 38 22.25 C 38 22.113281 38.113281 22 38.25 22 C 38.386719 22 38.5 22.113281 38.5 22.25 L 38.5 24.25 C 38.5 24.386719 38.386719 24.5 38.25 24.5 Z M 38.25 24.5 "/>
</g>
</svg>
