<?xml version="1.0" encoding="UTF-8"?>
<svg width="197px" height="50px" viewBox="0 0 197 50" version="1.1" xmlns="http://www.w3.org/2000/svg" xmlns:xlink="http://www.w3.org/1999/xlink">
    <g id="Welcome" stroke="none" stroke-width="1" fill="none" fill-rule="evenodd">
        <g id="Desktop-HD" transform="translate(-102.000000, -30.000000)">
            <g id="Logo" transform="translate(102.500000, 30.000000)">
                <path d="M7.88,39 C8.68,39 9.4,38.9066667 10.04,38.72 C10.68,38.5333333 11.2233333,38.2533333 11.67,37.88 C12.1166667,37.5066667 12.4633333,37.0466667 12.71,36.5 C12.9566667,35.9533333 13.08,35.3266667 13.08,34.62 C13.08,34.1666667 13.0266667,33.74 12.92,33.34 C12.8133333,32.94 12.6366667,32.58 12.39,32.26 C12.1433333,31.94 11.8233333,31.67 11.43,31.45 C11.0366667,31.23 10.56,31.0666667 10,30.96 C10.56,30.6133333 10.9766667,30.19 11.25,29.69 C11.5233333,29.19 11.66,28.56 11.66,27.8 C11.66,26.5466667 11.3,25.5866667 10.58,24.92 C9.86,24.2533333 8.80666667,23.92 7.42,23.92 L7.42,23.92 L1.58,23.92 L1.58,39 L7.88,39 Z M6.22,29.84 L5.5,29.84 L5.5,26.92 L6.22,26.92 C7.44666667,26.92 8.06,27.4066667 8.06,28.38 C8.06,29.3533333 7.44666667,29.84 6.22,29.84 L6.22,29.84 Z M6.36,35.96 L5.5,35.96 L5.5,32.76 L6.36,32.76 C7.34666667,32.76 8.05333333,32.8866667 8.48,33.14 C8.90666667,33.3933333 9.12,33.8 9.12,34.36 C9.12,34.92 8.90666667,35.3266667 8.48,35.58 C8.05333333,35.8333333 7.34666667,35.96 6.36,35.96 L6.36,35.96 Z M17.94,39 L18.84,36.38 L24.44,36.38 L25.34,39 L29.52,39 L23.78,23.92 L19.5,23.92 L13.76,39 L17.94,39 Z M23.4,33.4 L19.88,33.4 L21.64,28.38 L23.4,33.4 Z M42.86,39 L42.86,35.68 L36.54,35.68 L43.64,23.92 L31.16,23.92 L31.16,27.24 L37.1,27.24 L29.96,39 L42.86,39 Z M49.44,39 L49.44,23.92 L45.52,23.92 L45.52,39 L49.44,39 Z M56.52,39 L56.52,29.78 L63.76,39 L67.66,39 L67.66,23.92 L63.76,23.92 L63.76,33.14 L56.52,23.92 L52.6,23.92 L52.6,39 L56.52,39 Z M78.32,39.42 C79.1733333,39.42 79.9866667,39.3133333 80.76,39.1 C81.5333333,38.8866667 82.2433333,38.5766667 82.89,38.17 C83.5366667,37.7633333 84.1,37.2566667 84.58,36.65 C85.06,36.0433333 85.44,35.3466667 85.72,34.56 C85.92,34 86.0533333,33.3933333 86.12,32.74 C86.1866667,32.0866667 86.22,31.36 86.22,30.56 L86.22,30.56 L78.44,30.56 L78.44,33.6 L81.66,33.6 C81.5933333,34.04 81.4666667,34.4133333 81.28,34.72 C81.0933333,35.0266667 80.8566667,35.2766667 80.57,35.47 C80.2833333,35.6633333 79.96,35.8033333 79.6,35.89 C79.24,35.9766667 78.8666667,36.02 78.48,36.02 C77.8266667,36.02 77.2533333,35.91 76.76,35.69 C76.2666667,35.47 75.8533333,35.16 75.52,34.76 C75.1866667,34.36 74.9366667,33.8866667 74.77,33.34 C74.6033333,32.7933333 74.52,32.2 74.52,31.56 C74.52,30.8533333 74.6166667,30.2133333 74.81,29.64 C75.0033333,29.0666667 75.27,28.5766667 75.61,28.17 C75.95,27.7633333 76.36,27.45 76.84,27.23 C77.32,27.01 77.8533333,26.9 78.44,26.9 C79.1466667,26.9 79.7766667,27.08 80.33,27.44 C80.8833333,27.8 81.3333333,28.3933333 81.68,29.22 L81.68,29.22 L85.4,27.68 C84.7066667,26.2533333 83.7666667,25.2 82.58,24.52 C81.3933333,23.84 80.0133333,23.5 78.44,23.5 C77.2266667,23.5 76.1266667,23.6933333 75.14,24.08 C74.1533333,24.4666667 73.31,25.0066667 72.61,25.7 C71.91,26.3933333 71.37,27.23 70.99,28.21 C70.61,29.19 70.42,30.2666667 70.42,31.44 C70.42,32.6266667 70.6133333,33.71 71,34.69 C71.3866667,35.67 71.9266667,36.51 72.62,37.21 C73.3133333,37.91 74.1433333,38.4533333 75.11,38.84 C76.0766667,39.2266667 77.1466667,39.42 78.32,39.42 Z M90.88,39 L91.78,36.38 L97.38,36.38 L98.28,39 L102.46,39 L96.72,23.92 L92.44,23.92 L86.7,39 L90.88,39 Z M96.34,33.4 L92.82,33.4 L94.58,28.38 L96.34,33.4 Z" id="BAZINGA" fill="#2D3134" fill-rule="nonzero"></path>
                <rect id="Rectangle" fill="#FFD277" x="109.5" y="30" width="86" height="14"></rect>
                <path d="M109.732,38.216 C110.524,38.216 111.172,37.928 111.748,37.424 C112.288,36.848 112.576,36.2 112.576,35.408 C112.576,34.616 112.288,33.932 111.748,33.392 C111.172,32.816 110.524,32.564 109.732,32.564 C108.94,32.564 108.256,32.816 107.752,33.392 C107.176,33.932 106.924,34.616 106.924,35.408 C106.924,36.2 107.176,36.848 107.752,37.424 C108.256,37.928 108.94,38.216 109.732,38.216 Z M122,38 L122,26.24 L125.22,26.24 L125.22,22.92 L114.86,22.92 L114.86,26.24 L118.08,26.24 L118.08,38 L122,38 Z M134.48,38.42 C135.693333,38.42 136.813333,38.2166667 137.84,37.81 C138.866667,37.4033333 139.75,36.84 140.49,36.12 C141.23,35.4 141.806667,34.5566667 142.22,33.59 C142.633333,32.6233333 142.84,31.58 142.84,30.46 C142.84,29.34 142.633333,28.2966667 142.22,27.33 C141.806667,26.3633333 141.23,25.52 140.49,24.8 C139.75,24.08 138.866667,23.5166667 137.84,23.11 C136.813333,22.7033333 135.693333,22.5 134.48,22.5 C133.253333,22.5 132.13,22.7033333 131.11,23.11 C130.09,23.5166667 129.213333,24.08 128.48,24.8 C127.746667,25.52 127.173333,26.3633333 126.76,27.33 C126.346667,28.2966667 126.14,29.34 126.14,30.46 C126.14,31.58 126.346667,32.6233333 126.76,33.59 C127.173333,34.5566667 127.746667,35.4 128.48,36.12 C129.213333,36.84 130.09,37.4033333 131.11,37.81 C132.13,38.2166667 133.253333,38.42 134.48,38.42 Z M134.48,34.62 C133.906667,34.62 133.363333,34.5166667 132.85,34.31 C132.336667,34.1033333 131.886667,33.8133333 131.5,33.44 C131.113333,33.0666667 130.806667,32.6266667 130.58,32.12 C130.353333,31.6133333 130.24,31.06 130.24,30.46 C130.24,29.86 130.353333,29.3066667 130.58,28.8 C130.806667,28.2933333 131.113333,27.8533333 131.5,27.48 C131.886667,27.1066667 132.336667,26.8166667 132.85,26.61 C133.363333,26.4033333 133.906667,26.3 134.48,26.3 C135.053333,26.3 135.596667,26.4033333 136.11,26.61 C136.623333,26.8166667 137.076667,27.1066667 137.47,27.48 C137.863333,27.8533333 138.173333,28.2933333 138.4,28.8 C138.626667,29.3066667 138.74,29.86 138.74,30.46 C138.74,31.06 138.626667,31.6133333 138.4,32.12 C138.173333,32.6266667 137.863333,33.0666667 137.47,33.44 C137.076667,33.8133333 136.623333,34.1033333 136.11,34.31 C135.596667,34.5166667 135.053333,34.62 134.48,34.62 Z M152.98,38.42 C154.193333,38.42 155.313333,38.2166667 156.34,37.81 C157.366667,37.4033333 158.25,36.84 158.99,36.12 C159.73,35.4 160.306667,34.5566667 160.72,33.59 C161.133333,32.6233333 161.34,31.58 161.34,30.46 C161.34,29.34 161.133333,28.2966667 160.72,27.33 C160.306667,26.3633333 159.73,25.52 158.99,24.8 C158.25,24.08 157.366667,23.5166667 156.34,23.11 C155.313333,22.7033333 154.193333,22.5 152.98,22.5 C151.753333,22.5 150.63,22.7033333 149.61,23.11 C148.59,23.5166667 147.713333,24.08 146.98,24.8 C146.246667,25.52 145.673333,26.3633333 145.26,27.33 C144.846667,28.2966667 144.64,29.34 144.64,30.46 C144.64,31.58 144.846667,32.6233333 145.26,33.59 C145.673333,34.5566667 146.246667,35.4 146.98,36.12 C147.713333,36.84 148.59,37.4033333 149.61,37.81 C150.63,38.2166667 151.753333,38.42 152.98,38.42 Z M152.98,34.62 C152.406667,34.62 151.863333,34.5166667 151.35,34.31 C150.836667,34.1033333 150.386667,33.8133333 150,33.44 C149.613333,33.0666667 149.306667,32.6266667 149.08,32.12 C148.853333,31.6133333 148.74,31.06 148.74,30.46 C148.74,29.86 148.853333,29.3066667 149.08,28.8 C149.306667,28.2933333 149.613333,27.8533333 150,27.48 C150.386667,27.1066667 150.836667,26.8166667 151.35,26.61 C151.863333,26.4033333 152.406667,26.3 152.98,26.3 C153.553333,26.3 154.096667,26.4033333 154.61,26.61 C155.123333,26.8166667 155.576667,27.1066667 155.97,27.48 C156.363333,27.8533333 156.673333,28.2933333 156.9,28.8 C157.126667,29.3066667 157.24,29.86 157.24,30.46 C157.24,31.06 157.126667,31.6133333 156.9,32.12 C156.673333,32.6266667 156.363333,33.0666667 155.97,33.44 C155.576667,33.8133333 155.123333,34.1033333 154.61,34.31 C154.096667,34.5166667 153.553333,34.62 152.98,34.62 Z M172.44,38 L172.44,34.68 L167.74,34.68 L167.74,22.92 L163.82,22.92 L163.82,38 L172.44,38 Z M179.32,38.42 C180.24,38.42 181.063333,38.2966667 181.79,38.05 C182.516667,37.8033333 183.13,37.4566667 183.63,37.01 C184.13,36.5633333 184.51,36.0266667 184.77,35.4 C185.03,34.7733333 185.16,34.0733333 185.16,33.3 C185.16,32.1533333 184.863333,31.2233333 184.27,30.51 C183.676667,29.7966667 182.74,29.2266667 181.46,28.8 C181.14,28.6933333 180.816667,28.5933333 180.49,28.5 C180.163333,28.4066667 179.87,28.2966667 179.61,28.17 C179.35,28.0433333 179.14,27.8933333 178.98,27.72 C178.82,27.5466667 178.74,27.3266667 178.74,27.06 C178.74,26.6733333 178.9,26.36 179.22,26.12 C179.54,25.88 179.953333,25.76 180.46,25.76 C180.86,25.76 181.273333,25.8433333 181.7,26.01 C182.126667,26.1766667 182.553333,26.4333333 182.98,26.78 L182.98,26.78 L184.54,23.72 C183.793333,23.32 183.013333,23.0166667 182.2,22.81 C181.386667,22.6033333 180.606667,22.5 179.86,22.5 C179.06,22.5 178.336667,22.62 177.69,22.86 C177.043333,23.1 176.496667,23.4366667 176.05,23.87 C175.603333,24.3033333 175.256667,24.8233333 175.01,25.43 C174.763333,26.0366667 174.64,26.7133333 174.64,27.46 C174.64,28.2066667 174.756667,28.8233333 174.99,29.31 C175.223333,29.7966667 175.53,30.2 175.91,30.52 C176.29,30.84 176.723333,31.0966667 177.21,31.29 C177.696667,31.4833333 178.193333,31.66 178.7,31.82 C179.126667,31.9666667 179.49,32.1 179.79,32.22 C180.09,32.34 180.333333,32.47 180.52,32.61 C180.706667,32.75 180.84,32.9033333 180.92,33.07 C181,33.2366667 181.04,33.4333333 181.04,33.66 C181.04,34.0333333 180.883333,34.3666667 180.57,34.66 C180.256667,34.9533333 179.78,35.1 179.14,35.1 C178.58,35.1 178.013333,34.9733333 177.44,34.72 C176.866667,34.4666667 176.286667,34.08 175.7,33.56 L175.7,33.56 L174.02,36.72 C175.646667,37.8533333 177.413333,38.42 179.32,38.42 Z" id=".TOOLS" fill="#2D3134" fill-rule="nonzero"></path>
            </g>
        </g>
    </g>
</svg>